<?xml version="1.0" encoding="utf-8"?>
<!-- Generator: Adobe Illustrator 16.0.0, SVG Export Plug-In . SVG Version: 6.00 Build 0)  -->
<!DOCTYPE svg PUBLIC "-//W3C//DTD SVG 1.1//EN" "http://www.w3.org/Graphics/SVG/1.1/DTD/svg11.dtd">
<svg version="1.1" id="Layer_1" xmlns="http://www.w3.org/2000/svg" xmlns:xlink="http://www.w3.org/1999/xlink" x="0px" y="0px"
	 width="161.482px" height="149.136px" viewBox="0 0 161.482 149.136" enable-background="new 0 0 161.482 149.136"
	 xml:space="preserve">
<g>
	<g>
		<defs>
			<rect id="SVGID_1_" width="161.773" height="149.471"/>
		</defs>
		<clipPath id="SVGID_2_">
			<use xlink:href="#SVGID_1_"  overflow="visible"/>
		</clipPath>
		<path clip-path="url(#SVGID_2_)" fill-rule="evenodd" clip-rule="evenodd" fill="#E8F5F6" d="M4.627,0.151h152.052
			c2.671,0,4.856,2.186,4.856,4.856v139.743c0,2.672-2.185,4.857-4.856,4.857H4.627c-2.671,0-4.856-2.186-4.856-4.857V5.008
			C-0.229,2.337,1.956,0.151,4.627,0.151"/>
		<path clip-path="url(#SVGID_2_)" fill="#2CBEC2" d="M105.913,146.133c1.683-5.348,8.581-6.19,10.857-1.026
			c2.846-0.782,5.137,0.234,7.006,2.311c0.918-1.161,3.096-1.614,4.715-0.666c1.304-4.144,6.647-4.796,8.411-0.796
			c2.672-0.733,4.714,0.574,6.307,2.918H97.166C99.849,146.597,102.684,145.208,105.913,146.133"/>
		<path clip-path="url(#SVGID_2_)" fill="#72CBD0" d="M112.388,148.835c0,0,2.026-1.822,6.137-1.366
			c1.17-1.109,2.575-1.605,4.277-1.14c1.513-3.435,6.103-2.874,7.222,0.684c2.148-0.614,4.035,0.31,5.821,1.822H112.388z"/>
		<path clip-path="url(#SVGID_2_)" fill="#72CBD0" d="M91.595,148.835c1.139-1.676,2.949-1.686,4.862-1.16
			c1.263-2.862,5.887-2.714,6.821,0.251c3.462-1.188,4.979,0.909,4.979,0.909H91.595z"/>
		<path clip-path="url(#SVGID_2_)" fill="#6EBDB8" d="M131.957,145.751c0.125,0.458,0.579,0.731,0.579,0.731s0.253-0.466,0.13-0.923
			c-0.125-0.457-0.579-0.73-0.579-0.73S131.833,145.296,131.957,145.751"/>
		<path clip-path="url(#SVGID_2_)" fill="#6EBDB8" d="M133.55,145.428c-0.494,0.424-0.564,1.152-0.564,1.152
			s0.729,0.038,1.223-0.388c0.493-0.424,0.563-1.151,0.563-1.151S134.043,145.003,133.55,145.428"/>
		<path clip-path="url(#SVGID_2_)" fill="#2CBEC2" d="M37.812,146.896c-1.215-3.858-6.191-4.466-7.833-0.741
			c-2.054-0.563-3.708,0.17-5.056,1.668c-0.663-0.837-2.234-1.165-3.402-0.481c-0.941-2.988-4.797-3.46-6.069-0.573
			c-1.929-0.529-3.402,0.415-4.551,2.105h33.224C42.188,147.23,40.142,146.229,37.812,146.896"/>
		<path clip-path="url(#SVGID_2_)" fill="#72CBD0" d="M33.14,148.846c0,0-1.463-1.314-4.429-0.986
			c-0.844-0.8-1.856-1.159-3.084-0.821c-1.093-2.479-4.404-2.075-5.212,0.493c-1.551-0.444-2.911,0.223-4.199,1.314H33.14z"/>
		<path clip-path="url(#SVGID_2_)" fill="#72CBD0" d="M48.144,148.846c-0.823-1.21-2.128-1.217-3.509-0.838
			c-0.91-2.065-4.248-1.958-4.922,0.182c-2.498-0.857-3.592,0.656-3.592,0.656H48.144z"/>
		<path clip-path="url(#SVGID_2_)" fill="#469B9F" d="M34.112,142.985c-0.157,0.303-0.518,0.429-0.518,0.429
			s-0.109-0.368,0.047-0.671c0.157-0.304,0.519-0.429,0.519-0.429S34.269,142.682,34.112,142.985"/>
		<path clip-path="url(#SVGID_2_)" fill="#469B9F" d="M33.036,142.516c0.285,0.375,0.225,0.898,0.225,0.898
			s-0.521-0.083-0.806-0.457c-0.283-0.374-0.223-0.898-0.223-0.898S32.752,142.142,33.036,142.516"/>
		<path clip-path="url(#SVGID_2_)" fill="#6EBDB8" d="M19.02,146.62c-0.09,0.331-0.417,0.528-0.417,0.528s-0.183-0.337-0.095-0.667
			c0.09-0.328,0.419-0.527,0.419-0.527S19.11,146.291,19.02,146.62"/>
		<path clip-path="url(#SVGID_2_)" fill="#6EBDB8" d="M17.87,146.388c0.356,0.306,0.407,0.83,0.407,0.83s-0.526,0.027-0.881-0.279
			c-0.356-0.306-0.408-0.83-0.408-0.83S17.514,146.08,17.87,146.388"/>
		<rect x="52.563" y="25.856" clip-path="url(#SVGID_2_)" fill="#FFFFFF" width="10.251" height="2.987"/>
		<rect x="70.648" y="25.856" clip-path="url(#SVGID_2_)" fill="#FFFFFF" width="10.25" height="2.987"/>
		<rect x="93.016" y="25.856" clip-path="url(#SVGID_2_)" fill="#FFFFFF" width="10.252" height="2.987"/>
		<rect x="47.732" y="30.098" clip-path="url(#SVGID_2_)" fill="#FFFFFF" width="65.417" height="112.701"/>
		<rect x="45.244" y="142.799" clip-path="url(#SVGID_2_)" fill="#72CBD0" width="70.392" height="5.269"/>
		<rect x="61.732" y="146.312" clip-path="url(#SVGID_2_)" fill="#FFFFFF" width="37.418" height="1.756"/>
		<rect x="64.509" y="144.554" clip-path="url(#SVGID_2_)" fill="#FFFFFF" width="31.864" height="1.757"/>
		<rect x="67.932" y="142.799" clip-path="url(#SVGID_2_)" fill="#FFFFFF" width="25.019" height="1.756"/>
		<rect x="67.932" y="144.202" clip-path="url(#SVGID_2_)" fill="#7EA5B9" width="25.019" height="0.353"/>
		<rect x="64.509" y="145.959" clip-path="url(#SVGID_2_)" fill="#7EA5B9" width="31.864" height="0.352"/>
		<rect x="85.808" y="106.191" clip-path="url(#SVGID_2_)" fill="#F04C5A" width="27.342" height="18.019"/>
		<rect x="85.808" y="106.191" clip-path="url(#SVGID_2_)" fill="#B23449" width="0.6" height="18.019"/>
		<rect x="77.102" y="129.793" clip-path="url(#SVGID_2_)" fill="#415D76" width="6.641" height="13.006"/>
		<rect x="92.1" y="110.458" clip-path="url(#SVGID_2_)" fill="#FFFFFF" width="11.422" height="13.752"/>
		<rect x="98.142" y="111.205" clip-path="url(#SVGID_2_)" fill="#415D76" width="4.766" height="12.301"/>
		<rect x="92.679" y="111.205" clip-path="url(#SVGID_2_)" fill="#415D76" width="4.768" height="12.301"/>
		<polygon clip-path="url(#SVGID_2_)" fill="#7EA5B9" points="113.15,126.859 47.732,128.051 47.732,126.545 113.15,126.545 		"/>
		<polygon clip-path="url(#SVGID_2_)" fill="#7EA5B9" points="85.808,107.673 47.732,108.864 47.732,107.358 85.808,107.358 		"/>
		<polygon clip-path="url(#SVGID_2_)" fill="#B23449" points="113.15,107.922 85.808,109.55 85.808,107.358 113.15,107.358 		"/>
		<rect x="88.625" y="121.403" clip-path="url(#SVGID_2_)" fill="#FFFFFF" width="1.037" height="2.807"/>
		<rect x="100.628" y="121.403" clip-path="url(#SVGID_2_)" fill="#FFFFFF" width="1.037" height="2.807"/>
		<rect x="112.631" y="121.403" clip-path="url(#SVGID_2_)" fill="#FFFFFF" width="1.039" height="2.807"/>
		<rect x="106.63" y="121.403" clip-path="url(#SVGID_2_)" fill="#FFFFFF" width="1.037" height="2.807"/>
		<rect x="94.625" y="121.403" clip-path="url(#SVGID_2_)" fill="#FFFFFF" width="1.039" height="2.807"/>
		<rect x="88.625" y="121.403" clip-path="url(#SVGID_2_)" fill="#7EA5B9" width="1.037" height="0.561"/>
		<rect x="100.628" y="121.403" clip-path="url(#SVGID_2_)" fill="#7EA5B9" width="1.037" height="0.561"/>
		<rect x="112.631" y="121.403" clip-path="url(#SVGID_2_)" fill="#7EA5B9" width="1.039" height="0.561"/>
		<rect x="106.63" y="121.403" clip-path="url(#SVGID_2_)" fill="#7EA5B9" width="1.037" height="0.561"/>
		<rect x="94.625" y="121.403" clip-path="url(#SVGID_2_)" fill="#7EA5B9" width="1.039" height="0.561"/>
		<rect x="46.037" y="124.209" clip-path="url(#SVGID_2_)" fill="#033755" width="68.809" height="2.336"/>
		<rect x="85.808" y="120.896" clip-path="url(#SVGID_2_)" fill="#FFFFFF" width="29.038" height="0.508"/>
		<rect x="68.822" y="126.546" clip-path="url(#SVGID_2_)" fill="#F04C5A" width="3.231" height="16.253"/>
		<rect x="88.829" y="126.546" clip-path="url(#SVGID_2_)" fill="#F04C5A" width="3.23" height="16.253"/>
		<rect x="68.822" y="126.545" clip-path="url(#SVGID_2_)" fill="#B23449" width="3.231" height="0.753"/>
		<rect x="88.829" y="126.545" clip-path="url(#SVGID_2_)" fill="#B23449" width="3.23" height="0.753"/>
		<rect x="52.035" y="133.271" clip-path="url(#SVGID_2_)" fill="#415D76" width="2.035" height="7.181"/>
		<rect x="52.035" y="130.213" clip-path="url(#SVGID_2_)" fill="#415D76" width="2.035" height="2.44"/>
		<rect x="54.486" y="133.271" clip-path="url(#SVGID_2_)" fill="#415D76" width="6.757" height="7.181"/>
		<rect x="54.486" y="130.213" clip-path="url(#SVGID_2_)" fill="#415D76" width="6.757" height="2.44"/>
		<rect x="61.658" y="133.271" clip-path="url(#SVGID_2_)" fill="#415D76" width="2.035" height="7.181"/>
		<rect x="61.658" y="130.213" clip-path="url(#SVGID_2_)" fill="#415D76" width="2.035" height="2.44"/>
		<polygon clip-path="url(#SVGID_2_)" fill="#7EA5B9" points="51.531,129.793 51.208,129.793 51.208,141.427 64.171,141.427 
			64.171,141.075 51.531,141.075 		"/>
		<rect x="52.035" y="114.199" clip-path="url(#SVGID_2_)" fill="#415D76" width="2.035" height="7.182"/>
		<rect x="52.035" y="111.14" clip-path="url(#SVGID_2_)" fill="#415D76" width="2.035" height="2.441"/>
		<rect x="54.486" y="114.199" clip-path="url(#SVGID_2_)" fill="#415D76" width="6.757" height="7.182"/>
		<rect x="54.486" y="111.14" clip-path="url(#SVGID_2_)" fill="#415D76" width="6.757" height="2.441"/>
		<rect x="61.658" y="114.199" clip-path="url(#SVGID_2_)" fill="#415D76" width="2.035" height="7.182"/>
		<rect x="61.658" y="111.14" clip-path="url(#SVGID_2_)" fill="#415D76" width="2.035" height="2.441"/>
		<polygon clip-path="url(#SVGID_2_)" fill="#7EA5B9" points="51.531,110.722 51.208,110.722 51.208,122.354 64.171,122.354 
			64.171,122.004 51.531,122.004 		"/>
		<rect x="85.808" y="87.005" clip-path="url(#SVGID_2_)" fill="#F04C5A" width="27.342" height="18.018"/>
		<rect x="85.808" y="87.005" clip-path="url(#SVGID_2_)" fill="#B23449" width="0.6" height="18.018"/>
		<rect x="46.037" y="85.837" clip-path="url(#SVGID_2_)" fill="#033755" width="68.809" height="2.335"/>
		<rect x="92.1" y="91.271" clip-path="url(#SVGID_2_)" fill="#FFFFFF" width="11.422" height="13.752"/>
		<rect x="98.142" y="92.019" clip-path="url(#SVGID_2_)" fill="#415D76" width="4.766" height="12.301"/>
		<rect x="92.679" y="92.019" clip-path="url(#SVGID_2_)" fill="#415D76" width="4.768" height="12.301"/>
		<polygon clip-path="url(#SVGID_2_)" fill="#7EA5B9" points="85.808,88.485 47.732,89.677 47.732,88.172 85.808,88.172 		"/>
		<polygon clip-path="url(#SVGID_2_)" fill="#B23449" points="113.15,88.735 85.808,90.363 85.808,88.172 113.15,88.172 		"/>
		<rect x="88.625" y="102.216" clip-path="url(#SVGID_2_)" fill="#FFFFFF" width="1.037" height="2.807"/>
		<rect x="100.628" y="102.216" clip-path="url(#SVGID_2_)" fill="#FFFFFF" width="1.037" height="2.807"/>
		<rect x="112.631" y="102.216" clip-path="url(#SVGID_2_)" fill="#FFFFFF" width="1.039" height="2.807"/>
		<rect x="106.63" y="102.216" clip-path="url(#SVGID_2_)" fill="#FFFFFF" width="1.037" height="2.807"/>
		<rect x="94.625" y="102.216" clip-path="url(#SVGID_2_)" fill="#FFFFFF" width="1.039" height="2.807"/>
		<rect x="88.625" y="102.216" clip-path="url(#SVGID_2_)" fill="#7EA5B9" width="1.037" height="0.561"/>
		<rect x="100.628" y="102.216" clip-path="url(#SVGID_2_)" fill="#7EA5B9" width="1.037" height="0.561"/>
		<rect x="112.631" y="102.216" clip-path="url(#SVGID_2_)" fill="#7EA5B9" width="1.039" height="0.561"/>
		<rect x="106.63" y="102.216" clip-path="url(#SVGID_2_)" fill="#7EA5B9" width="1.037" height="0.561"/>
		<rect x="94.625" y="102.216" clip-path="url(#SVGID_2_)" fill="#7EA5B9" width="1.039" height="0.561"/>
		<rect x="85.808" y="101.709" clip-path="url(#SVGID_2_)" fill="#FFFFFF" width="29.038" height="0.507"/>
		<rect x="52.035" y="95.012" clip-path="url(#SVGID_2_)" fill="#415D76" width="2.035" height="7.183"/>
		<rect x="52.035" y="91.953" clip-path="url(#SVGID_2_)" fill="#415D76" width="2.035" height="2.442"/>
		<rect x="54.486" y="95.012" clip-path="url(#SVGID_2_)" fill="#415D76" width="6.757" height="7.183"/>
		<rect x="54.486" y="91.953" clip-path="url(#SVGID_2_)" fill="#415D76" width="6.757" height="2.442"/>
		<rect x="61.658" y="95.012" clip-path="url(#SVGID_2_)" fill="#415D76" width="2.035" height="7.183"/>
		<rect x="61.658" y="91.953" clip-path="url(#SVGID_2_)" fill="#415D76" width="2.035" height="2.442"/>
		<polygon clip-path="url(#SVGID_2_)" fill="#7EA5B9" points="51.531,91.534 51.208,91.534 51.208,103.166 64.171,103.166 
			64.171,102.816 51.531,102.816 		"/>
		<rect x="85.808" y="67.818" clip-path="url(#SVGID_2_)" fill="#F04C5A" width="27.342" height="18.02"/>
		<rect x="85.808" y="67.818" clip-path="url(#SVGID_2_)" fill="#B23449" width="0.6" height="18.02"/>
		<rect x="46.037" y="66.65" clip-path="url(#SVGID_2_)" fill="#033755" width="68.809" height="2.335"/>
		<rect x="92.1" y="72.084" clip-path="url(#SVGID_2_)" fill="#FFFFFF" width="11.422" height="13.754"/>
		<rect x="98.142" y="72.831" clip-path="url(#SVGID_2_)" fill="#415D76" width="4.766" height="12.302"/>
		<rect x="92.679" y="72.831" clip-path="url(#SVGID_2_)" fill="#415D76" width="4.768" height="12.302"/>
		<polygon clip-path="url(#SVGID_2_)" fill="#7EA5B9" points="85.808,69.299 47.732,70.49 47.732,68.985 85.808,68.985 		"/>
		<polygon clip-path="url(#SVGID_2_)" fill="#B23449" points="113.15,69.548 85.808,71.177 85.808,68.985 113.15,68.985 		"/>
		<rect x="88.625" y="83.029" clip-path="url(#SVGID_2_)" fill="#FFFFFF" width="1.037" height="2.809"/>
		<rect x="100.628" y="83.029" clip-path="url(#SVGID_2_)" fill="#FFFFFF" width="1.037" height="2.809"/>
		<rect x="112.631" y="83.029" clip-path="url(#SVGID_2_)" fill="#FFFFFF" width="1.039" height="2.809"/>
		<rect x="106.63" y="83.029" clip-path="url(#SVGID_2_)" fill="#FFFFFF" width="1.037" height="2.809"/>
		<rect x="94.625" y="83.029" clip-path="url(#SVGID_2_)" fill="#FFFFFF" width="1.039" height="2.809"/>
		<rect x="88.625" y="83.029" clip-path="url(#SVGID_2_)" fill="#7EA5B9" width="1.037" height="0.561"/>
		<rect x="100.628" y="83.029" clip-path="url(#SVGID_2_)" fill="#7EA5B9" width="1.037" height="0.561"/>
		<rect x="112.631" y="83.029" clip-path="url(#SVGID_2_)" fill="#7EA5B9" width="1.039" height="0.561"/>
		<rect x="106.63" y="83.029" clip-path="url(#SVGID_2_)" fill="#7EA5B9" width="1.037" height="0.561"/>
		<rect x="94.625" y="83.029" clip-path="url(#SVGID_2_)" fill="#7EA5B9" width="1.039" height="0.561"/>
		<rect x="85.808" y="82.521" clip-path="url(#SVGID_2_)" fill="#FFFFFF" width="29.038" height="0.508"/>
		<rect x="52.035" y="75.826" clip-path="url(#SVGID_2_)" fill="#415D76" width="2.035" height="7.181"/>
		<rect x="52.035" y="72.767" clip-path="url(#SVGID_2_)" fill="#415D76" width="2.035" height="2.441"/>
		<rect x="54.486" y="75.826" clip-path="url(#SVGID_2_)" fill="#415D76" width="6.757" height="7.181"/>
		<rect x="54.486" y="72.767" clip-path="url(#SVGID_2_)" fill="#415D76" width="6.757" height="2.441"/>
		<rect x="61.658" y="75.826" clip-path="url(#SVGID_2_)" fill="#415D76" width="2.035" height="7.181"/>
		<rect x="61.658" y="72.767" clip-path="url(#SVGID_2_)" fill="#415D76" width="2.035" height="2.441"/>
		<polygon clip-path="url(#SVGID_2_)" fill="#7EA5B9" points="51.531,72.348 51.208,72.348 51.208,83.979 64.171,83.979 
			64.171,83.63 51.531,83.63 		"/>
		<rect x="69.944" y="114.199" clip-path="url(#SVGID_2_)" fill="#415D76" width="2.035" height="7.182"/>
		<rect x="69.944" y="111.14" clip-path="url(#SVGID_2_)" fill="#415D76" width="2.035" height="2.441"/>
		<rect x="72.394" y="114.199" clip-path="url(#SVGID_2_)" fill="#415D76" width="6.757" height="7.182"/>
		<rect x="72.394" y="111.14" clip-path="url(#SVGID_2_)" fill="#415D76" width="6.757" height="2.441"/>
		<rect x="79.568" y="114.199" clip-path="url(#SVGID_2_)" fill="#415D76" width="2.035" height="7.182"/>
		<rect x="79.568" y="111.14" clip-path="url(#SVGID_2_)" fill="#415D76" width="2.035" height="2.441"/>
		<polygon clip-path="url(#SVGID_2_)" fill="#7EA5B9" points="69.441,110.722 69.116,110.722 69.116,122.354 82.081,122.354 
			82.081,122.004 69.441,122.004 		"/>
		<rect x="69.944" y="95.012" clip-path="url(#SVGID_2_)" fill="#415D76" width="2.035" height="7.183"/>
		<rect x="69.944" y="91.953" clip-path="url(#SVGID_2_)" fill="#415D76" width="2.035" height="2.442"/>
		<rect x="72.394" y="95.012" clip-path="url(#SVGID_2_)" fill="#415D76" width="6.757" height="7.183"/>
		<rect x="72.394" y="91.953" clip-path="url(#SVGID_2_)" fill="#415D76" width="6.757" height="2.442"/>
		<rect x="79.568" y="95.012" clip-path="url(#SVGID_2_)" fill="#415D76" width="2.035" height="7.183"/>
		<rect x="79.568" y="91.953" clip-path="url(#SVGID_2_)" fill="#415D76" width="2.035" height="2.442"/>
		<polygon clip-path="url(#SVGID_2_)" fill="#7EA5B9" points="69.441,91.534 69.116,91.534 69.116,103.166 82.081,103.166 
			82.081,102.816 69.441,102.816 		"/>
		<rect x="69.944" y="75.826" clip-path="url(#SVGID_2_)" fill="#415D76" width="2.035" height="7.181"/>
		<rect x="69.944" y="72.767" clip-path="url(#SVGID_2_)" fill="#415D76" width="2.035" height="2.441"/>
		<rect x="72.394" y="75.826" clip-path="url(#SVGID_2_)" fill="#415D76" width="6.757" height="7.181"/>
		<rect x="72.394" y="72.767" clip-path="url(#SVGID_2_)" fill="#415D76" width="6.757" height="2.441"/>
		<rect x="79.568" y="75.826" clip-path="url(#SVGID_2_)" fill="#415D76" width="2.035" height="7.181"/>
		<rect x="79.568" y="72.767" clip-path="url(#SVGID_2_)" fill="#415D76" width="2.035" height="2.441"/>
		<polygon clip-path="url(#SVGID_2_)" fill="#7EA5B9" points="69.441,72.348 69.116,72.348 69.116,83.979 82.081,83.979 
			82.081,83.63 69.441,83.63 		"/>
		<rect x="85.808" y="48.631" clip-path="url(#SVGID_2_)" fill="#F04C5A" width="27.342" height="18.02"/>
		<rect x="85.808" y="48.631" clip-path="url(#SVGID_2_)" fill="#B23449" width="0.6" height="18.02"/>
		<rect x="46.037" y="47.464" clip-path="url(#SVGID_2_)" fill="#033755" width="68.809" height="2.334"/>
		<rect x="92.1" y="52.897" clip-path="url(#SVGID_2_)" fill="#FFFFFF" width="11.422" height="13.753"/>
		<rect x="98.142" y="53.645" clip-path="url(#SVGID_2_)" fill="#415D76" width="4.766" height="12.301"/>
		<rect x="92.679" y="53.645" clip-path="url(#SVGID_2_)" fill="#415D76" width="4.768" height="12.301"/>
		<polygon clip-path="url(#SVGID_2_)" fill="#7EA5B9" points="85.808,50.112 47.732,51.304 47.732,49.798 85.808,49.798 		"/>
		<polygon clip-path="url(#SVGID_2_)" fill="#B23449" points="113.15,50.361 85.808,51.99 85.808,49.798 113.15,49.798 		"/>
		<rect x="88.625" y="63.843" clip-path="url(#SVGID_2_)" fill="#FFFFFF" width="1.037" height="2.808"/>
		<rect x="100.628" y="63.843" clip-path="url(#SVGID_2_)" fill="#FFFFFF" width="1.037" height="2.808"/>
		<rect x="112.631" y="63.843" clip-path="url(#SVGID_2_)" fill="#FFFFFF" width="1.039" height="2.808"/>
		<rect x="106.63" y="63.843" clip-path="url(#SVGID_2_)" fill="#FFFFFF" width="1.037" height="2.808"/>
		<rect x="94.625" y="63.843" clip-path="url(#SVGID_2_)" fill="#FFFFFF" width="1.039" height="2.808"/>
		<rect x="88.625" y="63.843" clip-path="url(#SVGID_2_)" fill="#7EA5B9" width="1.037" height="0.561"/>
		<rect x="100.628" y="63.843" clip-path="url(#SVGID_2_)" fill="#7EA5B9" width="1.037" height="0.561"/>
		<rect x="112.631" y="63.843" clip-path="url(#SVGID_2_)" fill="#7EA5B9" width="1.039" height="0.561"/>
		<rect x="106.63" y="63.843" clip-path="url(#SVGID_2_)" fill="#7EA5B9" width="1.037" height="0.561"/>
		<rect x="94.625" y="63.843" clip-path="url(#SVGID_2_)" fill="#7EA5B9" width="1.039" height="0.561"/>
		<rect x="85.808" y="63.336" clip-path="url(#SVGID_2_)" fill="#FFFFFF" width="29.038" height="0.507"/>
		<rect x="52.035" y="56.639" clip-path="url(#SVGID_2_)" fill="#415D76" width="2.035" height="7.182"/>
		<rect x="52.035" y="53.581" clip-path="url(#SVGID_2_)" fill="#415D76" width="2.035" height="2.44"/>
		<rect x="54.486" y="56.639" clip-path="url(#SVGID_2_)" fill="#415D76" width="6.757" height="7.182"/>
		<rect x="54.486" y="53.581" clip-path="url(#SVGID_2_)" fill="#415D76" width="6.757" height="2.44"/>
		<rect x="61.658" y="56.639" clip-path="url(#SVGID_2_)" fill="#415D76" width="2.035" height="7.182"/>
		<rect x="61.658" y="53.581" clip-path="url(#SVGID_2_)" fill="#415D76" width="2.035" height="2.44"/>
		<polygon clip-path="url(#SVGID_2_)" fill="#7EA5B9" points="51.531,53.161 51.208,53.161 51.208,64.793 64.171,64.793 
			64.171,64.443 51.531,64.443 		"/>
		<rect x="69.944" y="56.639" clip-path="url(#SVGID_2_)" fill="#415D76" width="2.035" height="7.182"/>
		<rect x="69.944" y="53.581" clip-path="url(#SVGID_2_)" fill="#415D76" width="2.035" height="2.44"/>
		<rect x="72.394" y="56.639" clip-path="url(#SVGID_2_)" fill="#415D76" width="6.757" height="7.182"/>
		<rect x="72.394" y="53.581" clip-path="url(#SVGID_2_)" fill="#415D76" width="6.757" height="2.44"/>
		<rect x="79.568" y="56.639" clip-path="url(#SVGID_2_)" fill="#415D76" width="2.035" height="7.182"/>
		<rect x="79.568" y="53.581" clip-path="url(#SVGID_2_)" fill="#415D76" width="2.035" height="2.44"/>
		<polygon clip-path="url(#SVGID_2_)" fill="#7EA5B9" points="69.441,53.161 69.116,53.161 69.116,64.793 82.081,64.793 
			82.081,64.443 69.441,64.443 		"/>
		<rect x="85.808" y="29.444" clip-path="url(#SVGID_2_)" fill="#F04C5A" width="27.342" height="18.02"/>
		<rect x="85.808" y="29.444" clip-path="url(#SVGID_2_)" fill="#B23449" width="0.6" height="18.02"/>
		<rect x="46.037" y="28.276" clip-path="url(#SVGID_2_)" fill="#033755" width="68.809" height="2.335"/>
		<rect x="92.1" y="33.71" clip-path="url(#SVGID_2_)" fill="#FFFFFF" width="11.422" height="13.754"/>
		<rect x="98.142" y="34.458" clip-path="url(#SVGID_2_)" fill="#415D76" width="4.766" height="12.301"/>
		<rect x="92.679" y="34.458" clip-path="url(#SVGID_2_)" fill="#415D76" width="4.768" height="12.301"/>
		<polygon clip-path="url(#SVGID_2_)" fill="#7EA5B9" points="85.808,30.926 47.732,32.117 47.732,30.611 85.808,30.611 		"/>
		<polygon clip-path="url(#SVGID_2_)" fill="#B23449" points="113.15,31.175 85.808,32.803 85.808,30.611 113.15,30.611 		"/>
		<rect x="88.625" y="44.655" clip-path="url(#SVGID_2_)" fill="#FFFFFF" width="1.037" height="2.809"/>
		<rect x="100.628" y="44.655" clip-path="url(#SVGID_2_)" fill="#FFFFFF" width="1.037" height="2.809"/>
		<rect x="112.631" y="44.655" clip-path="url(#SVGID_2_)" fill="#FFFFFF" width="1.039" height="2.809"/>
		<rect x="106.63" y="44.655" clip-path="url(#SVGID_2_)" fill="#FFFFFF" width="1.037" height="2.809"/>
		<rect x="94.625" y="44.655" clip-path="url(#SVGID_2_)" fill="#FFFFFF" width="1.039" height="2.809"/>
		<rect x="88.625" y="44.656" clip-path="url(#SVGID_2_)" fill="#7EA5B9" width="1.037" height="0.561"/>
		<rect x="100.628" y="44.656" clip-path="url(#SVGID_2_)" fill="#7EA5B9" width="1.037" height="0.561"/>
		<rect x="112.631" y="44.656" clip-path="url(#SVGID_2_)" fill="#7EA5B9" width="1.039" height="0.561"/>
		<rect x="106.63" y="44.656" clip-path="url(#SVGID_2_)" fill="#7EA5B9" width="1.037" height="0.561"/>
		<rect x="94.625" y="44.656" clip-path="url(#SVGID_2_)" fill="#7EA5B9" width="1.039" height="0.561"/>
		<rect x="85.808" y="44.148" clip-path="url(#SVGID_2_)" fill="#FFFFFF" width="29.038" height="0.508"/>
		<rect x="52.035" y="37.452" clip-path="url(#SVGID_2_)" fill="#415D76" width="2.035" height="7.182"/>
		<rect x="52.035" y="34.395" clip-path="url(#SVGID_2_)" fill="#415D76" width="2.035" height="2.44"/>
		<rect x="54.486" y="37.452" clip-path="url(#SVGID_2_)" fill="#415D76" width="6.757" height="7.182"/>
		<rect x="54.486" y="34.395" clip-path="url(#SVGID_2_)" fill="#415D76" width="6.757" height="2.44"/>
		<rect x="61.658" y="37.452" clip-path="url(#SVGID_2_)" fill="#415D76" width="2.035" height="7.182"/>
		<rect x="61.658" y="34.395" clip-path="url(#SVGID_2_)" fill="#415D76" width="2.035" height="2.44"/>
		<polygon clip-path="url(#SVGID_2_)" fill="#7EA5B9" points="51.531,33.975 51.208,33.975 51.208,45.605 64.171,45.605 
			64.171,45.257 51.531,45.257 		"/>
		<rect x="69.944" y="37.452" clip-path="url(#SVGID_2_)" fill="#415D76" width="2.035" height="7.182"/>
		<rect x="69.944" y="34.395" clip-path="url(#SVGID_2_)" fill="#415D76" width="2.035" height="2.44"/>
		<rect x="72.394" y="37.452" clip-path="url(#SVGID_2_)" fill="#415D76" width="6.757" height="7.182"/>
		<rect x="72.394" y="34.395" clip-path="url(#SVGID_2_)" fill="#415D76" width="6.757" height="2.44"/>
		<rect x="79.568" y="37.452" clip-path="url(#SVGID_2_)" fill="#415D76" width="2.035" height="7.182"/>
		<rect x="79.568" y="34.395" clip-path="url(#SVGID_2_)" fill="#415D76" width="2.035" height="2.44"/>
		<polygon clip-path="url(#SVGID_2_)" fill="#7EA5B9" points="69.441,33.975 69.116,33.975 69.116,45.605 82.081,45.605 
			82.081,45.257 69.441,45.257 		"/>
		<rect x="96.041" y="133.271" clip-path="url(#SVGID_2_)" fill="#415D76" width="2.403" height="7.181"/>
		<rect x="96.041" y="130.213" clip-path="url(#SVGID_2_)" fill="#415D76" width="2.403" height="2.44"/>
		<rect x="98.934" y="133.271" clip-path="url(#SVGID_2_)" fill="#415D76" width="7.982" height="7.181"/>
		<rect x="98.934" y="130.213" clip-path="url(#SVGID_2_)" fill="#415D76" width="7.982" height="2.44"/>
		<rect x="107.406" y="133.271" clip-path="url(#SVGID_2_)" fill="#415D76" width="2.404" height="7.181"/>
		<rect x="107.406" y="130.213" clip-path="url(#SVGID_2_)" fill="#415D76" width="2.404" height="2.44"/>
		<polygon clip-path="url(#SVGID_2_)" fill="#7EA5B9" points="95.446,129.793 95.063,129.793 95.063,141.427 110.374,141.427 
			110.374,141.075 95.446,141.075 		"/>
		<rect x="76.402" y="129.793" clip-path="url(#SVGID_2_)" fill="#7EA5B9" width="0.21" height="13.006"/>
		<rect x="84.231" y="129.793" clip-path="url(#SVGID_2_)" fill="#7EA5B9" width="0.21" height="13.006"/>
		<rect x="75.785" y="128.812" clip-path="url(#SVGID_2_)" fill="#F04C5A" width="9.274" height="0.981"/>
		<rect x="46.037" y="105.022" clip-path="url(#SVGID_2_)" fill="#033755" width="68.809" height="2.336"/>
		<path clip-path="url(#SVGID_2_)" fill="#2CBEC2" d="M18.23,148.656h12.213c-0.171-0.634-0.614-1.131-1.121-1.355
			c-0.544-0.242-1.15-0.207-1.709-0.023l0.313-0.334c0.172-0.214,0.311-0.438,0.351-0.733c0.043-0.329-0.041-0.663-0.221-0.925
			c-0.301-0.434-0.824-0.59-1.293-0.535l-0.07,0.011l-0.268,0.081c-0.376,0.167-0.708,0.459-0.993,0.78l-0.155,0.188
			c0,0,0.793-0.751,0.98-1.324c0.688-1.623-0.769-3.981-2.581-3.313c-0.729,0.35-1.324,1.065-1.717,1.909
			c1.451-2.475-0.954-3.979-1.809-1.751c0.529-1.837-0.26-3.758-1.853-2.68l-0.068,0.032V148.656z"/>
		<path clip-path="url(#SVGID_2_)" fill="#2CBEC2" d="M18.23,148.656h7.197c-0.103-0.374-0.362-0.665-0.662-0.799
			c-0.32-0.144-0.677-0.121-1.007-0.014c0.168-0.373-0.063-0.875-0.384-1.021c-0.322-0.144-0.683-0.023-0.992,0.158
			c0.268-0.144,0.467-0.444,0.578-0.78c0.407-0.957-0.452-2.346-1.521-1.953c-0.429,0.207-0.779,0.628-1.011,1.126
			c0.855-1.459-0.562-2.345-1.065-1.032c0.489-1.436-0.456-2.277-1.132-1.954V148.656z"/>
		<path clip-path="url(#SVGID_2_)" fill="#2CBEC2" d="M25.692,140.813c-0.194,0.199-0.473,0.173-0.473,0.173s0.034-0.35,0.226-0.547
			c0.193-0.198,0.473-0.172,0.473-0.172S25.885,140.615,25.692,140.813"/>
		<path clip-path="url(#SVGID_2_)" fill="#2CBEC2" d="M20.141,143.112c-0.143,0.296-0.453,0.386-0.453,0.386
			s-0.077-0.39,0.066-0.685c0.145-0.296,0.455-0.385,0.455-0.385S20.286,142.818,20.141,143.112"/>
		<path clip-path="url(#SVGID_2_)" fill="#2CBEC2" d="M25.105,140.029c0.083,0.418-0.109,0.835-0.109,0.835
			s-0.326-0.259-0.408-0.676c-0.083-0.417,0.11-0.835,0.11-0.835S25.023,139.612,25.105,140.029"/>
		<polygon clip-path="url(#SVGID_2_)" fill="#914F61" points="130.434,148.622 130.126,144.185 132.592,141.341 132.44,141.221 
			130.987,142.46 130.774,141.221 130.544,141.28 130.583,142.825 129.992,143.397 129.768,138.863 130.975,137.376 130.84,137.262 
			129.59,138.257 129.509,135.886 129.183,135.886 128.967,138.8 128.651,141.698 127.023,139.939 126.87,140.039 127.463,140.97 
			126.429,140.955 126.429,141.128 127.559,141.3 128.67,143.033 128.417,148.622 		"/>
		<path clip-path="url(#SVGID_2_)" fill="#2CBEC2" d="M119.908,132.573c-0.02-0.553,0.022-1.123,0.255-1.625
			c0.233-0.502,0.688-0.928,1.239-1.006c0.317-0.046,0.673,0.042,0.869,0.296c-0.621-0.768-1.187-1.608-1.431-2.563
			c-0.246-0.955-0.124-2.046,0.515-2.8c0.614-0.725,1.639-1.037,2.581-0.899s1.794,0.686,2.414,1.405
			c-0.068-1.482-0.41-2.976-0.138-4.435c0.273-1.46,1.437-2.92,2.926-2.854c1.008,0.046,1.857,0.765,2.501,1.54
			c1.334,1.608,2.157,3.632,2.323,5.712c0.389-0.529,0.782-1.066,1.298-1.471c0.518-0.405,1.185-0.668,1.834-0.562
			c1.068,0.173,1.748,1.256,2.007,2.303c0.278,1.117,0.239,2.311-0.113,3.406c-0.582,1.812-1.948,3.249-3.271,4.62
			c0.608-0.271,1.375,0.095,1.669,0.689c0.4,0.808,0.019,1.738-0.537,2.381c-0.467,0.54-1.086,0.932-1.727,1.252
			c-3.586,1.793-7.952,1.534-11.571-0.026c-1.344-0.58-2.282-1.538-2.997-2.819l-0.008-0.015
			C120.121,134.335,119.939,133.449,119.908,132.573"/>
		<path clip-path="url(#SVGID_2_)" fill="#469B9F" d="M131.429,140.097c0.167-0.193,0.661-0.27,0.653,0.083
			c0.146-1.091,1.576-0.678,0.908,0.365c1.101-1.139,2.074,0.317,0.651,0.967c1.21,0.024,0.534,1.744-0.527,0.994
			c0.429,0.257,0.157,0.82-0.306,0.747C131.576,143.052,130.319,141.098,131.429,140.097"/>
		<path clip-path="url(#SVGID_2_)" fill="#72CBD0" d="M133.577,136.879c0.099-0.292,0.168-0.601,0.124-0.905
			c-0.043-0.305-0.217-0.603-0.497-0.732c-0.162-0.074-0.366-0.084-0.51,0.02c0.453-0.31,0.889-0.666,1.172-1.135
			c0.282-0.47,0.394-1.069,0.175-1.572c-0.211-0.482-0.706-0.812-1.229-0.889c-0.522-0.075-1.064,0.079-1.509,0.364
			c0.274-0.777,0.696-1.519,0.786-2.337c0.089-0.819-0.295-1.781-1.099-1.982c-0.543-0.138-1.11,0.11-1.577,0.42
			c-0.968,0.645-1.73,1.589-2.153,2.668c-0.12-0.343-0.244-0.69-0.454-0.989c-0.209-0.297-0.522-0.542-0.884-0.59
			c-0.596-0.078-1.131,0.39-1.437,0.905c-0.328,0.55-0.497,1.191-0.487,1.83c0.02,1.056,0.514,2.037,0.999,2.979
			c-0.279-0.241-0.746-0.17-0.998,0.101c-0.343,0.366-0.29,0.921-0.098,1.352c0.163,0.361,0.429,0.667,0.718,0.939
			c1.619,1.524,3.982,2.081,6.158,1.827c0.807-0.095,1.46-0.455,2.045-1.023l0.007-0.007
			C133.181,137.781,133.419,137.34,133.577,136.879"/>
		<path clip-path="url(#SVGID_2_)" fill="#469B9F" d="M137.642,133.162c-0.207,0.371-0.083,0.832-0.083,0.832
			s0.456-0.144,0.662-0.515c0.206-0.372,0.084-0.831,0.084-0.831S137.847,132.79,137.642,133.162"/>
		<path clip-path="url(#SVGID_2_)" fill="#469B9F" d="M138.875,133.948c-0.585-0.035-1.086,0.39-1.086,0.39s0.448,0.479,1.034,0.514
			c0.584,0.033,1.087-0.391,1.087-0.391S139.461,133.981,138.875,133.948"/>
		<path clip-path="url(#SVGID_2_)" fill="#469B9F" d="M126.037,141.471c0.21-0.087,0.313-0.32,0.313-0.32s-0.239-0.092-0.449-0.003
			c-0.209,0.088-0.312,0.319-0.312,0.319S125.828,141.559,126.037,141.471"/>
		<path clip-path="url(#SVGID_2_)" fill="#469B9F" d="M125.782,140.735c0.233,0.207,0.584,0.195,0.584,0.195
			s-0.028-0.349-0.261-0.556c-0.232-0.208-0.584-0.195-0.584-0.195S125.549,140.527,125.782,140.735"/>
		<path clip-path="url(#SVGID_2_)" fill="#6EBDB8" d="M126.102,128.535c0.297,0.305,0.775,0.321,0.775,0.321
			s-0.004-0.476-0.303-0.779c-0.297-0.305-0.774-0.321-0.774-0.321S125.803,128.232,126.102,128.535"/>
		<path clip-path="url(#SVGID_2_)" fill="#6EBDB8" d="M133.296,130.948c-0.277,0.104-0.418,0.402-0.418,0.402
			s0.305,0.129,0.582,0.024c0.277-0.105,0.418-0.403,0.418-0.403S133.571,130.844,133.296,130.948"/>
		<path clip-path="url(#SVGID_2_)" fill="#6EBDB8" d="M127.214,127.588c-0.203,0.547,0.06,1.147,0.06,1.147s0.589-0.287,0.792-0.835
			c0.203-0.549-0.06-1.148-0.06-1.148S127.417,127.04,127.214,127.588"/>
		<path clip-path="url(#SVGID_2_)" fill="#6EBDB8" d="M132.142,142.609l0.315,0.004c0.148-0.019,0.294-0.082,0.388-0.196
			c0.08-0.097,0.125-0.25,0.08-0.372c-0.063-0.177-0.296-0.136-0.403-0.268l-0.046-0.27l0.012-0.278l-0.201-0.153l-0.158,0.13
			l-0.106,0.055c-0.174-0.004-0.215-0.262-0.395-0.229c-0.189,0.034-0.297,0.232-0.35,0.397c-0.092,0.293-0.048,0.61,0.153,0.848
			C131.612,142.49,131.874,142.573,132.142,142.609"/>
		<polygon clip-path="url(#SVGID_2_)" fill="#914F61" points="40.191,148.622 39.97,145.426 41.745,143.379 41.637,143.292 
			40.59,144.184 40.436,143.292 40.27,143.334 40.3,144.447 39.873,144.859 39.711,141.595 40.581,140.522 40.483,140.44 
			39.583,141.157 39.524,139.449 39.29,139.449 39.135,141.549 38.907,143.635 37.734,142.368 37.625,142.441 38.053,143.111 
			37.308,143.101 37.308,143.226 38.121,143.349 38.922,144.597 38.739,148.622 		"/>
		<path clip-path="url(#SVGID_2_)" fill="#2CBEC2" d="M32.611,137.064c-0.015-0.399,0.015-0.809,0.183-1.17
			c0.168-0.362,0.497-0.669,0.893-0.726c0.228-0.033,0.485,0.031,0.625,0.214c-0.446-0.554-0.854-1.159-1.031-1.847
			c-0.176-0.688-0.087-1.474,0.372-2.016c0.442-0.522,1.182-0.747,1.86-0.647c0.679,0.099,1.292,0.494,1.739,1.012
			c-0.049-1.067-0.296-2.144-0.1-3.194s1.035-2.103,2.107-2.055c0.726,0.031,1.338,0.55,1.802,1.108
			c0.961,1.16,1.553,2.616,1.674,4.114c0.278-0.382,0.562-0.769,0.934-1.061c0.374-0.291,0.854-0.48,1.321-0.403
			c0.769,0.124,1.258,0.905,1.445,1.658c0.2,0.805,0.171,1.663-0.082,2.453c-0.419,1.305-1.403,2.342-2.356,3.328
			c0.438-0.194,0.99,0.067,1.202,0.495c0.289,0.582,0.014,1.253-0.385,1.715c-0.336,0.39-0.783,0.672-1.244,0.902
			c-2.583,1.291-5.727,1.105-8.334-0.02c-0.967-0.418-1.643-1.108-2.157-2.03l-0.007-0.011
			C32.763,138.332,32.633,137.694,32.611,137.064"/>
		<path clip-path="url(#SVGID_2_)" fill="#469B9F" d="M40.908,142.481c0.121-0.139,0.477-0.194,0.471,0.061
			c0.104-0.786,1.135-0.488,0.654,0.264c0.793-0.82,1.495,0.228,0.469,0.695c0.872,0.018,0.384,1.256-0.38,0.717
			c0.31,0.184,0.113,0.591-0.22,0.538C41.014,144.609,40.109,143.203,40.908,142.481"/>
		<path clip-path="url(#SVGID_2_)" fill="#72CBD0" d="M42.454,140.165c0.071-0.21,0.122-0.434,0.09-0.652
			c-0.031-0.219-0.156-0.435-0.357-0.527L41.819,139c0.326-0.224,0.64-0.481,0.844-0.818c0.204-0.339,0.283-0.769,0.125-1.131
			c-0.151-0.349-0.507-0.585-0.885-0.642c-0.376-0.054-0.766,0.058-1.086,0.263c0.198-0.561,0.501-1.093,0.566-1.683
			c0.063-0.59-0.214-1.282-0.792-1.428c-0.392-0.099-0.8,0.079-1.135,0.303c-0.697,0.463-1.247,1.144-1.55,1.921
			c-0.087-0.246-0.176-0.498-0.328-0.712c-0.152-0.214-0.376-0.392-0.637-0.425c-0.429-0.057-0.815,0.281-1.035,0.652
			c-0.235,0.396-0.359,0.857-0.35,1.316c0.013,0.761,0.37,1.469,0.718,2.146c-0.201-0.174-0.537-0.122-0.718,0.073
			c-0.247,0.262-0.208,0.662-0.07,0.973c0.117,0.261,0.309,0.48,0.517,0.677c1.167,1.099,2.869,1.498,4.435,1.315
			c0.582-0.067,1.052-0.327,1.475-0.736l0.003-0.004C42.169,140.815,42.341,140.497,42.454,140.165"/>
		<path clip-path="url(#SVGID_2_)" fill="#469B9F" d="M45.382,137.488c-0.149,0.268-0.06,0.599-0.06,0.599s0.328-0.104,0.477-0.371
			c0.148-0.268,0.06-0.599,0.06-0.599S45.531,137.221,45.382,137.488"/>
		<path clip-path="url(#SVGID_2_)" fill="#469B9F" d="M46.271,138.054c-0.422-0.025-0.783,0.28-0.783,0.28s0.323,0.346,0.744,0.37
			c0.421,0.024,0.782-0.28,0.782-0.28S46.692,138.078,46.271,138.054"/>
		<path clip-path="url(#SVGID_2_)" fill="#469B9F" d="M37.024,143.472c0.151-0.062,0.225-0.23,0.225-0.23s-0.172-0.066-0.323-0.003
			c-0.151,0.063-0.224,0.23-0.224,0.23S36.873,143.535,37.024,143.472"/>
		<path clip-path="url(#SVGID_2_)" fill="#469B9F" d="M36.842,142.941c0.168,0.15,0.419,0.141,0.419,0.141s-0.02-0.25-0.188-0.4
			c-0.168-0.149-0.42-0.14-0.42-0.14S36.673,142.792,36.842,142.941"/>
		<path clip-path="url(#SVGID_2_)" fill="#6EBDB8" d="M37.071,134.156c0.214,0.22,0.559,0.231,0.559,0.231s-0.004-0.343-0.219-0.562
			c-0.213-0.22-0.558-0.232-0.558-0.232S36.856,133.938,37.071,134.156"/>
		<path clip-path="url(#SVGID_2_)" fill="#6EBDB8" d="M42.253,135.893c-0.199,0.076-0.302,0.292-0.302,0.292s0.22,0.091,0.42,0.016
			c0.199-0.075,0.301-0.29,0.301-0.29S42.451,135.817,42.253,135.893"/>
		<path clip-path="url(#SVGID_2_)" fill="#6EBDB8" d="M37.872,133.474c-0.146,0.395,0.044,0.826,0.044,0.826
			s0.425-0.206,0.571-0.601c0.146-0.396-0.044-0.827-0.044-0.827S38.018,133.079,37.872,133.474"/>
		<path clip-path="url(#SVGID_2_)" fill="#6EBDB8" d="M41.422,144.291l0.227,0.003l0.28-0.141l0.057-0.269
			c-0.046-0.127-0.213-0.096-0.29-0.193l-0.033-0.193l0.008-0.2l-0.145-0.111l-0.114,0.094l-0.075,0.04
			c-0.125-0.003-0.154-0.188-0.285-0.165c-0.136,0.024-0.213,0.167-0.251,0.286c-0.066,0.21-0.035,0.439,0.111,0.611
			C41.039,144.206,41.228,144.266,41.422,144.291"/>
		<polygon clip-path="url(#SVGID_2_)" fill="#033755" points="29.419,148.622 27.743,148.622 28.061,144.28 29.101,144.28 		"/>
		<rect x="28.306" y="129.837" clip-path="url(#SVGID_2_)" fill="#033755" width="0.548" height="18.785"/>
		<polygon clip-path="url(#SVGID_2_)" fill="#033755" points="29.445,129.837 27.715,129.837 27.08,126.713 30.082,126.713 		"/>
		<polygon clip-path="url(#SVGID_2_)" fill="#FFFFFF" points="29.125,129.258 28.036,129.258 27.637,127.291 29.525,127.291 		"/>
		<polygon clip-path="url(#SVGID_2_)" fill="#033755" points="29.445,125.919 27.715,125.919 27.08,126.713 30.082,126.713 		"/>
		<polygon clip-path="url(#SVGID_2_)" fill="#033755" points="29.577,129.837 27.589,129.837 27.426,129.675 27.589,129.513 
			29.577,129.513 29.738,129.675 		"/>
		<polygon clip-path="url(#SVGID_2_)" fill="#033755" points="29.125,144.441 28.04,144.441 27.878,144.28 28.04,144.118 
			29.125,144.118 29.288,144.28 		"/>
		<path clip-path="url(#SVGID_2_)" fill="#033755" d="M29.055,125.919c0,0.258-0.212,0.469-0.472,0.469
			c-0.261,0-0.472-0.211-0.472-0.469c0-0.26,0.21-0.471,0.472-0.471C28.842,125.448,29.055,125.659,29.055,125.919"/>
		<polygon clip-path="url(#SVGID_2_)" fill="#033755" points="117.897,148.622 116.221,148.622 116.538,144.28 117.579,144.28 		"/>
		<rect x="116.785" y="129.837" clip-path="url(#SVGID_2_)" fill="#033755" width="0.548" height="18.785"/>
		<polygon clip-path="url(#SVGID_2_)" fill="#033755" points="117.923,129.837 116.193,129.837 115.559,126.713 118.56,126.713 		
			"/>
		<polygon clip-path="url(#SVGID_2_)" fill="#FFFFFF" points="117.603,129.258 116.514,129.258 116.114,127.291 118.003,127.291 		
			"/>
		<polygon clip-path="url(#SVGID_2_)" fill="#033755" points="117.923,125.919 116.193,125.919 115.559,126.713 118.56,126.713 		
			"/>
		<polygon clip-path="url(#SVGID_2_)" fill="#033755" points="118.055,129.837 116.067,129.837 115.904,129.675 116.067,129.513 
			118.055,129.513 118.217,129.675 		"/>
		<polygon clip-path="url(#SVGID_2_)" fill="#033755" points="117.603,144.441 116.518,144.441 116.356,144.28 116.518,144.118 
			117.603,144.118 117.765,144.28 		"/>
		<path clip-path="url(#SVGID_2_)" fill="#033755" d="M117.533,125.919c0,0.258-0.212,0.469-0.472,0.469
			c-0.261,0-0.472-0.211-0.472-0.469c0-0.26,0.211-0.471,0.472-0.471C117.321,125.448,117.533,125.659,117.533,125.919"/>
		<path clip-path="url(#SVGID_2_)" fill="#469B9F" d="M106.789,148.651c0.216,0.42,0.719,0.593,0.719,0.593s0.15-0.509-0.066-0.93
			c-0.218-0.421-0.72-0.594-0.72-0.594S106.571,148.229,106.789,148.651"/>
		<path clip-path="url(#SVGID_2_)" fill="#469B9F" d="M108.279,148c-0.395,0.52-0.311,1.244-0.311,1.244s0.721-0.114,1.114-0.633
			c0.393-0.519,0.311-1.244,0.311-1.244S108.673,147.482,108.279,148"/>
		<path clip-path="url(#SVGID_2_)" fill="#C4D7E0" d="M51.433,115.49c-0.477,0.005-0.93,0.109-1.341,0.295
			c-0.865,0.393-1.742-0.008-2.095-0.404c-0.96-1.078-2.345-1.757-3.887-1.757c-1.754,0-3.305,0.875-4.257,2.22
			c-0.518,0.82-1.435,0.743-1.913,0.743c-1.293,0-2.34,1.065-2.34,2.38v0.008h15.833V115.49z"/>
		<path clip-path="url(#SVGID_2_)" fill="#A0C3CF" d="M47.684,117.408l-0.145-0.127c0.77-0.914,2.119-1.45,2.176-1.473l0.069,0.182
			C49.771,115.996,48.421,116.531,47.684,117.408"/>
		<path clip-path="url(#SVGID_2_)" fill="#A0C3CF" d="M40.211,117.753c-0.004-0.01-0.407-0.889-1.931-1.069l0.021-0.192
			c1.642,0.193,2.067,1.143,2.084,1.184L40.211,117.753z"/>
		<path clip-path="url(#SVGID_2_)" fill="#FFFFFF" d="M18.11,102.154h26.748c-0.12-1.322-1.211-2.358-2.543-2.358
			c-0.524,0-1.014,0.161-1.419,0.438c-0.406,0.246-0.807,0.116-0.936-0.298c-0.489-1.569-1.931-2.704-3.634-2.704
			c-0.26,0-0.514,0.025-0.759,0.076c-0.895,0.146-1.354-0.267-1.483-0.895c-0.682-3.168-3.457-5.538-6.776-5.538
			c-3.061,0-5.657,2.016-6.58,4.813c-0.259,0.743-1.052,0.77-1.509,0.442c-0.339-0.244-0.713-0.439-1.109-0.588V102.154z"/>
		<path clip-path="url(#SVGID_2_)" fill="#A0C3CF" d="M21.786,99.102c-0.729-1.34-1.594-2.269-2.799-3.015l0.098-0.165
			c1.237,0.764,2.121,1.715,2.869,3.086L21.786,99.102z"/>
		<path clip-path="url(#SVGID_2_)" fill="#A0C3CF" d="M32.296,99.634l-0.161-0.105c1.308-2.052,3.23-2.293,3.311-2.302l0.021,0.193
			C35.449,97.423,33.551,97.662,32.296,99.634"/>
		<path clip-path="url(#SVGID_2_)" fill="#A0C3CF" d="M29.884,100.591l-0.136-0.137c0.68-0.698,1.583-1.065,2.463-1
			c0.756,0.053,1.414,0.412,1.854,1.011l-0.153,0.117c-0.405-0.553-1.014-0.885-1.713-0.935
			C31.368,99.592,30.524,99.934,29.884,100.591"/>
		<path clip-path="url(#SVGID_2_)" fill="#FFFFFF" d="M141.748,110.479c-0.477,0.006-0.93,0.11-1.341,0.296
			c-0.865,0.392-1.744-0.008-2.096-0.404c-0.959-1.078-2.344-1.757-3.887-1.757c-1.753,0-3.303,0.874-4.257,2.219
			c-0.517,0.82-1.434,0.744-1.913,0.744c-1.292,0-2.339,1.065-2.339,2.379v0.009h15.833V110.479z"/>
		<path clip-path="url(#SVGID_2_)" fill="#A0C3CF" d="M137.999,112.397l-0.146-0.127c0.771-0.913,2.12-1.45,2.176-1.473l0.069,0.182
			C140.085,110.985,138.736,111.521,137.999,112.397"/>
		<path clip-path="url(#SVGID_2_)" fill="#A0C3CF" d="M130.525,112.742c-0.003-0.01-0.407-0.89-1.93-1.068l0.021-0.193
			c1.642,0.193,2.067,1.144,2.084,1.184L130.525,112.742z"/>
	</g>
</g>
</svg>
