<?xml version="1.0" encoding="utf-8"?>
<!-- Generator: Adobe Illustrator 16.0.0, SVG Export Plug-In . SVG Version: 6.00 Build 0)  -->
<!DOCTYPE svg PUBLIC "-//W3C//DTD SVG 1.1//EN" "http://www.w3.org/Graphics/SVG/1.1/DTD/svg11.dtd">
<svg version="1.1" id="Layer_1" xmlns="http://www.w3.org/2000/svg" xmlns:xlink="http://www.w3.org/1999/xlink" x="0px" y="0px"
	 width="161.482px" height="149.136px" viewBox="0 0 161.482 149.136" enable-background="new 0 0 161.482 149.136"
	 xml:space="preserve">
<g>
	<g>
		<defs>
			<rect id="SVGID_1_" x="0.003" width="161.773" height="149.471"/>
		</defs>
		<clipPath id="SVGID_2_">
			<use xlink:href="#SVGID_1_"  overflow="visible"/>
		</clipPath>
		<g clip-path="url(#SVGID_2_)">
			<defs>
				<rect id="SVGID_3_" x="0.003" width="161.773" height="149.471"/>
			</defs>
			<clipPath id="SVGID_4_">
				<use xlink:href="#SVGID_3_"  overflow="visible"/>
			</clipPath>
			<path clip-path="url(#SVGID_4_)" fill-rule="evenodd" clip-rule="evenodd" fill="#DDF2FA" d="M4.63,0.151h152.052
				c2.671,0,4.857,2.185,4.857,4.856v139.744c0,2.671-2.186,4.856-4.857,4.856H4.63c-2.671,0-4.857-2.186-4.857-4.856V5.008
				C-0.227,2.336,1.959,0.151,4.63,0.151"/>
			<g clip-path="url(#SVGID_4_)">
				<defs>
					<path id="SVGID_5_" d="M4.63,0.151h152.052c2.671,0,4.857,2.185,4.857,4.856v139.744c0,2.671-2.186,4.856-4.857,4.856H4.63
						c-2.671,0-4.857-2.186-4.857-4.856V5.008C-0.227,2.336,1.959,0.151,4.63,0.151"/>
				</defs>
				<clipPath id="SVGID_6_">
					<use xlink:href="#SVGID_5_"  overflow="visible"/>
				</clipPath>
				<g clip-path="url(#SVGID_6_)">
					<defs>
						<path id="SVGID_7_" d="M-96.499,149.978h291.754V125.13c-51.132-3.764-108.174-5.143-159.645-5.143
							c-18.507,0-36.299,0.179-52.83,0.488c-4.934,0.094-9.754,0.197-14.447,0.313c-3.253,0.077-6.447,0.163-9.575,0.252
							c-4.659,0.133-9.175,0.276-13.533,0.43c-2.69,0.094-5.322,0.191-7.885,0.29c-4.892,0.191-9.549,0.394-13.943,0.607
							c-2.402,0.113-4.724,0.232-6.962,0.354c-2.568,0.136-5.028,0.277-7.375,0.421c-1.953,0.119-3.815-0.011-5.56-0.017V149.978z"
							/>
					</defs>
					<clipPath id="SVGID_8_">
						<use xlink:href="#SVGID_7_"  overflow="visible"/>
					</clipPath>
					<linearGradient id="SVGID_9_" gradientUnits="userSpaceOnUse" x1="-96.499" y1="134.9824" x2="195.2554" y2="134.9824">
						<stop  offset="0" style="stop-color:#D6D625"/>
						<stop  offset="0.49" style="stop-color:#E5E646"/>
						<stop  offset="0.6588" style="stop-color:#E2E340"/>
						<stop  offset="0.8754" style="stop-color:#DBDC30"/>
						<stop  offset="0.99" style="stop-color:#D6D625"/>
						<stop  offset="1" style="stop-color:#D6D625"/>
					</linearGradient>
					<rect x="-96.499" y="119.987" clip-path="url(#SVGID_8_)" fill="url(#SVGID_9_)" width="291.754" height="29.99"/>
				</g>
				<g opacity="0.45" clip-path="url(#SVGID_6_)">
					<g>
						<defs>
							<rect id="SVGID_10_" x="-95.652" y="116.846" width="17.307" height="20.755"/>
						</defs>
						<clipPath id="SVGID_11_">
							<use xlink:href="#SVGID_10_"  overflow="visible"/>
						</clipPath>
						<g clip-path="url(#SVGID_11_)">
							<defs>
								<path id="SVGID_12_" d="M-79.402,122.476c-0.169-0.372-0.357-0.745-0.562-1.111c0.01-0.01,0.023-0.017,0.033-0.028
									c0.475-0.544,1.271-1.608,1.445-2.291c0.057-0.222,0.048-0.401-0.057-0.513c-0.431-0.457-3.28-2.876-4.286-0.956
									c0,0-0.092,0.14-0.208,0.361c-0.843-0.495-1.78-0.734-2.794-0.573c-0.802,0.127-1.501,0.496-2.105,1.022
									c-0.38,0.33-0.723,0.725-1.032,1.158c0.044-0.374-0.057-0.63-0.057-0.63c-0.424,0.371-0.55,0.819-0.573,1.169
									c-0.21-0.614-0.663-0.844-0.663-0.844c-0.099,0.762,0.31,1.266,0.568,1.502c-0.249,0.482-0.467,0.986-0.657,1.493
									c-0.181-0.031-0.367-0.052-0.56-0.05c-1.452,0.009-2.356,0.882-2.905,2.03c-0.155-0.203-0.309-0.265-0.309-0.265
									c-0.107,0.322-0.051,0.616,0.063,0.86c-0.006,0.018-0.012,0.034-0.018,0.052c-0.489-0.069-0.934,0.06-1.166,0.599
									c0,0-0.293,0.53-0.382,1.097c-0.044,0.282-0.037,0.575,0.083,0.813c0.143,0.282,0.526,0.546,0.963,0.728
									c-0.002,0.683,0.057,1.225,0.13,1.467c0.179,0.583,1.479,0.816,2.562,0.91c0.521,0.906,1.241,1.801,2.103,1.943
									c0,0,1.19,2.159,1.1,3.885l0.617-0.12c0,0-1.012-3.539-1.232-3.901c-0.187-0.308,1.727-1.639,2.072-2.68l1.143-0.338
									c0.083,0.041,0.169,0.076,0.258,0.104c1.412,0.45,1.383,1.359,1.517,2.558c0.076,0.678,0.007,5.613,0.007,5.613l0.46,0.06
									c0,0,0.121-4.711-0.085-6.76c0.015,0.003,0.026,0.003,0.026,0.003s-0.182-0.313,0.355-1.022
									c0.452-0.597,2.241-1.211,2.734-2.222c1.253-0.45,2.338-0.922,2.458-0.976C-78.278,125.73-78.659,124.114-79.402,122.476
									 M-89.579,131.846c-0.854,0.136-1.451-0.313-2.031-1.348c0.684,0.047,1.221,0.04,1.221,0.04l2.62-0.775
									C-88.079,130.461-88.746,131.714-89.579,131.846z M-84.075,130.035c-0.014-0.036-0.03-0.066-0.045-0.088
									c-0.199-0.258-0.807-0.519-1.464-0.892c-0.023-0.104-0.082-0.357-0.178-0.708c0.854,0.095,1.614,0.131,2.109,0.057
									c0.148-0.022,0.306-0.053,0.47-0.088c0.252,0.289,0.502,0.509,0.612,0.601c-0.125,0.068-0.239,0.132-0.327,0.187
									C-83.145,129.26-83.814,129.62-84.075,130.035z M-81.13,127.841c-0.236,0.387-0.79,0.715-1.25,0.969
									c-0.112-0.086-0.373-0.295-0.619-0.535c0.611-0.145,1.299-0.362,1.956-0.593C-81.069,127.732-81.096,127.784-81.13,127.841z
									"/>
							</defs>
							<clipPath id="SVGID_13_">
								<use xlink:href="#SVGID_12_"  overflow="visible"/>
							</clipPath>
							
								<linearGradient id="SVGID_14_" gradientUnits="userSpaceOnUse" x1="8.6802" y1="149.4707" x2="8.6802" y2="129.8407" gradientTransform="matrix(1 0 0 1 -95.6548 -11.8701)">
								<stop  offset="0" style="stop-color:#FFFFFF"/>
								<stop  offset="1" style="stop-color:#000001"/>
							</linearGradient>
							<rect x="-95.671" y="115.656" clip-path="url(#SVGID_13_)" fill="url(#SVGID_14_)" width="17.393" height="21.944"/>
						</g>
					</g>
				</g>
				<path clip-path="url(#SVGID_6_)" fill="#AE9932" d="M3.667,129.178l-32.136,3.047c0,0-4.471-2.13-1.654-4.986
					c0.396-0.401,0.937-0.82,1.654-1.247c2.762-1.643,4.294,2.217,4.294,2.217s-0.277-5.956,4.848-4.986
					c0.798,0.151,1.418,0.352,1.897,0.584c-0.244-1.523,0.194-3.247,2.812-4.187c2.582-0.925,4.341-0.525,5.383,0.555
					c0.005-0.061,0.014-0.125,0.022-0.186c0-0.006,0-0.011,0.003-0.017c0.277-1.992,1.64-3.71,5.674-3.399
					c1.078,0.083,2.002,0.327,2.792,0.695C5.063,119.949,3.667,129.178,3.667,129.178"/>
				<path clip-path="url(#SVGID_6_)" fill="#988330" d="M3.667,129.178l-32.136,3.047c0,0-4.471-2.13-1.654-4.986
					c8.782,6.325,12.167-0.831,12.865-2.695c0.103-0.264,0.147-0.422,0.147-0.422c0.271,0.184,0.535,0.353,0.79,0.508
					c5.765,3.519,6.948-0.125,7.133-2.66c0.055-0.751,0.022-1.404-0.002-1.748c-0.011-0.116-0.02-0.196-0.022-0.232
					c-0.003-0.014-0.003-0.022-0.003-0.022c5.879,6.452,7.86,0.543,8.472-2.698C5.063,119.949,3.667,129.178,3.667,129.178"/>
				<path clip-path="url(#SVGID_6_)" fill="#867930" d="M20.935,114.673l-1.662,13.483H2.835c0,0-1.903-1.903-3.152-4.416
					c-1.02-2.056-1.602-4.51-0.358-6.665c2.746-4.757,9.3-1.538,9.417-1.479c-0.122-0.228-6.385-11.815,1.297-11.633
					c3.696,0.086,6.342,2.521,8.101,5.048C20.073,111.786,20.935,114.673,20.935,114.673"/>
				<path clip-path="url(#SVGID_6_)" fill="#615021" d="M20.935,114.673l-1.662,13.483H2.835c0,0-1.903-1.903-3.152-4.416
					c0.305,0.419,0.676,0.798,1.205,1.069c1.261,0.648,2.896,0.81,4.076-0.103c1.895-1.463,1.446-4.443,0.465-6.627
					c1.194,2.228,1.839,3.939,3.964,4.859c1.066,0.46,2.172,0.35,2.953-0.509c0.873-0.959,1.042-2.378,0.787-3.508
					c-0.628-2.784-1.997-5.2-2.643-7.974c1.247,2.123,4.904,3.43,6.843,1.555c0.839-0.812,0.854-2.134,0.806-3.493
					C20.073,111.786,20.935,114.673,20.935,114.673"/>
				<path clip-path="url(#SVGID_6_)" fill="#867930" d="M169.893,125.229c-0.155,1.283-0.488,2.25-1.02,2.516
					c-1.845,0.925-19.946,0-19.946,0l-0.369-11.818c0,0,1.081-0.721,2.59-1.604c2.383-1.396,5.829-3.2,7.751-3.2
					c3.142,0,3.324,8.128,3.324,8.128s3.879-4.804,5.912-3.324C169.582,116.979,170.28,122.058,169.893,125.229"/>
				<path clip-path="url(#SVGID_6_)" fill="#615021" d="M169.893,125.229c-0.155,1.283-0.488,2.25-1.02,2.516
					c-1.845,0.925-19.946,0-19.946,0l-0.369-11.818c0,0,1.081-0.721,2.59-1.604c-0.066,1.008-0.454,2.338-0.183,3.246
					c0.258,0.856,1.161,1.582,2.017,1.324c0.376-0.116,0.682-0.394,0.97-0.665c1.787-1.67,3.574-3.341,5.361-5.011
					c-1.499,2.385-2.698,4.962-3.56,7.644c-0.347,1.08-0.563,2.448,0.299,3.186c0.673,0.576,1.743,0.443,2.468-0.063
					c0.438-0.308,0.782-0.718,1.081-1.164c-0.034,0.208-0.022,0.424,0.047,0.623c0.183,0.549,0.753,0.939,1.33,0.915
					c0.8-0.036,1.382-0.742,1.856-1.389c1.482-2.021,2.961-4.045,4.443-6.066c-0.717,1.82-1.418,3.941-0.454,5.64
					C167.493,123.72,168.815,124.394,169.893,125.229"/>
				<path clip-path="url(#SVGID_6_)" fill="#CAB42E" d="M195.255,129.685v20.293H-96.499v-15.977
					c24.299-1.399,70.631-4.192,125.124-8.126C83.351,121.925,154.927,126.401,195.255,129.685"/>
				<path clip-path="url(#SVGID_6_)" fill="#AE9932" d="M195.255,139.483v6.184l-291.754,0.18v-7.2L11.18,138.99
					c4.314,0.014,8.472-1.599,11.645-4.519l4.299-3.956l28.441,0.74l5.729,6.366c1.646,1.825,3.984,2.875,6.444,2.887l28.632,0.146
					c2.477,0.011,4.843-1.028,6.508-2.862l6.433-7.092l45.066,0.368l11.087,7.176c0.962,0.62,2.081,0.958,3.225,0.97
					L195.255,139.483z"/>
				<polygon clip-path="url(#SVGID_6_)" fill="#BB9A99" points="160.642,133.006 160.609,133.469 92.693,133.161 8.446,132.779 
					8.354,132.322 17.242,126.269 153.268,126.407 				"/>
				<polygon clip-path="url(#SVGID_6_)" fill="#967171" points="160.642,133.006 160.609,133.469 92.693,133.161 8.446,132.779 
					8.354,132.322 				"/>
				<polygon clip-path="url(#SVGID_6_)" fill="#CDAEAD" points="59.797,144.276 21.325,144.276 23.603,141.553 23.835,141.275 
					25.777,138.954 25.943,138.76 29.517,134.488 29.747,134.211 33.097,130.208 51.747,130.208 54.038,134.211 54.196,134.488 
					58.08,141.275 58.099,141.31 58.238,141.553 				"/>
				<polygon clip-path="url(#SVGID_6_)" fill="#CDAEAD" points="160.102,144.276 104.824,144.276 106.163,141.414 106.196,141.345 
					106.293,141.137 111.415,130.208 144.865,130.147 153.974,138.594 				"/>
				<rect x="24.722" y="140.813" clip-path="url(#SVGID_6_)" fill="#B09797" width="32.414" height="0.312"/>
				<rect x="107.279" y="140.813" clip-path="url(#SVGID_6_)" fill="#B09797" width="48.008" height="0.312"/>
				<rect x="110.142" y="134.21" clip-path="url(#SVGID_6_)" fill="#B09797" width="38.508" height="0.277"/>
				<polygon clip-path="url(#SVGID_6_)" fill="#B09797" points="54.196,134.488 29.517,134.488 29.747,134.211 54.038,134.211 				
					"/>
				<polygon clip-path="url(#SVGID_6_)" fill="#F0CECE" points="144.922,130.205 143.825,130.228 158.346,144.276 160.101,144.276 
									"/>
				<polygon clip-path="url(#SVGID_6_)" fill="#F0CECE" points="34.141,130.208 33.097,130.208 25.78,138.954 21.325,144.276 
					22.71,144.276 				"/>
				<path clip-path="url(#SVGID_6_)" fill="#E8DFEE" d="M34.186,46.385c0.066,0.238,0.116,0.477,0.146,0.718
					C34.271,46.864,34.224,46.626,34.186,46.385"/>
				<path clip-path="url(#SVGID_6_)" fill="#615021" d="M10.468,110.073c0.009,0.033,0.014,0.066,0.022,0.097
					c-0.005-0.011-0.011-0.02-0.017-0.03C10.462,110.12,10.468,110.095,10.468,110.073"/>
				<polygon clip-path="url(#SVGID_6_)" fill="#CDAEAD" points="195.255,143.45 195.255,149.978 -96.499,149.978 -96.499,143.714 
					23.275,143.605 24.517,143.605 				"/>
				<polygon clip-path="url(#SVGID_6_)" fill="#F0CECE" points="112.497,130.217 111.415,130.208 105.247,143.373 59.244,143.309 
					51.747,130.208 50.633,130.208 58.451,144.588 106.552,144.622 				"/>
				<polygon clip-path="url(#SVGID_6_)" fill="#E91E25" points="19.688,64.591 19.688,69.946 30.77,70.131 29.477,60.527 				"/>
				<rect x="19.366" y="63.852" clip-path="url(#SVGID_6_)" fill="#F9AF87" width="1.43" height="6.51"/>
				<g opacity="0.5" clip-path="url(#SVGID_6_)">
					<g>
						<defs>
							<rect id="SVGID_15_" x="19.366" y="64.511" width="8.264" height="1.072"/>
						</defs>
						<clipPath id="SVGID_16_">
							<use xlink:href="#SVGID_15_"  overflow="visible"/>
						</clipPath>
						<rect x="19.366" y="64.511" clip-path="url(#SVGID_16_)" fill="#B04460" width="8.264" height="1.072"/>
					</g>
				</g>
				<g clip-path="url(#SVGID_6_)">
					<defs>
						<polygon id="SVGID_17_" points="19.81,59.491 18.765,65.146 38.343,64.96 38.404,59.618 38.435,56.834 20.335,56.648 						
							"/>
					</defs>
					<clipPath id="SVGID_18_">
						<use xlink:href="#SVGID_17_"  overflow="visible"/>
					</clipPath>
					<linearGradient id="SVGID_19_" gradientUnits="userSpaceOnUse" x1="18.7646" y1="60.897" x2="38.4346" y2="60.897">
						<stop  offset="0" style="stop-color:#54435E"/>
						<stop  offset="0.99" style="stop-color:#3B2846"/>
						<stop  offset="1" style="stop-color:#3B2846"/>
					</linearGradient>
					<rect x="18.765" y="56.648" clip-path="url(#SVGID_18_)" fill="url(#SVGID_19_)" width="19.67" height="8.497"/>
				</g>
				<path clip-path="url(#SVGID_6_)" fill="#564760" d="M38.573,57.181l-0.031,2.784c-3.427-0.022-15.323-0.103-18.595-0.128
					l0.527-2.842L38.573,57.181z"/>
				<path clip-path="url(#SVGID_6_)" fill="#62516E" d="M37.881,60.92l-0.031,2.785c-3.427-0.022-15.323-0.103-18.595-0.128
					l0.526-2.842L37.881,60.92z"/>
				<polygon clip-path="url(#SVGID_6_)" fill="#A21D2C" points="70.075,56.404 69.959,57.377 69.925,57.659 69.654,59.903 
					69.388,62.096 69.114,64.375 64.745,61.383 64.213,61.015 64.127,60.491 63.678,57.726 63.612,57.313 63.362,55.775 				"/>
				<rect x="65.187" y="59.78" clip-path="url(#SVGID_6_)" fill="#821420" width="2.545" height="1.069"/>
				<rect x="66.238" y="61.228" clip-path="url(#SVGID_6_)" fill="#821420" width="2.545" height="1.07"/>
				<rect x="66.72" y="58.563" clip-path="url(#SVGID_6_)" fill="#821420" width="2.545" height="1.069"/>
				<g opacity="0.5" clip-path="url(#SVGID_6_)">
					<g>
						<defs>
							<rect id="SVGID_20_" x="63.678" y="57.377" width="6.281" height="4.718"/>
						</defs>
						<clipPath id="SVGID_21_">
							<use xlink:href="#SVGID_20_"  overflow="visible"/>
						</clipPath>
						<polygon clip-path="url(#SVGID_21_)" fill="#B04460" points="69.959,57.377 69.925,57.659 69.654,59.903 69.388,62.095 
							64.127,60.491 63.678,57.727 						"/>
					</g>
				</g>
				<polygon clip-path="url(#SVGID_6_)" fill="#B62C44" points="71.51,55.069 70.886,57.954 62.786,57.726 62.106,54.707 				"/>
				<rect x="63.028" y="55.242" clip-path="url(#SVGID_6_)" fill="#A21D2C" width="2.545" height="1.07"/>
				<rect x="64.619" y="56.413" clip-path="url(#SVGID_6_)" fill="#A21D2C" width="2.545" height="1.07"/>
				<rect x="68.175" y="55.427" clip-path="url(#SVGID_6_)" fill="#A21D2C" width="2.545" height="1.07"/>
				<polygon clip-path="url(#SVGID_6_)" fill="#DE4E73" points="62.786,57.726 62.106,54.707 71.51,55.069 62.444,55.032 				"/>
				<g clip-path="url(#SVGID_6_)">
					<defs>
						<polygon id="SVGID_22_" points="67.372,92.626 16.417,92.626 16.988,102.104 17.116,104.282 18.121,120.959 18.688,130.401 
							67.372,130.401 						"/>
					</defs>
					<clipPath id="SVGID_23_">
						<use xlink:href="#SVGID_22_"  overflow="visible"/>
					</clipPath>
					<linearGradient id="SVGID_24_" gradientUnits="userSpaceOnUse" x1="16.417" y1="111.5137" x2="67.3721" y2="111.5137">
						<stop  offset="0" style="stop-color:#E11E26"/>
						<stop  offset="0.01" style="stop-color:#E11E26"/>
						<stop  offset="0.2753" style="stop-color:#E51E26"/>
						<stop  offset="1" style="stop-color:#E91E25"/>
					</linearGradient>
					<rect x="16.417" y="92.626" clip-path="url(#SVGID_23_)" fill="url(#SVGID_24_)" width="50.955" height="37.775"/>
				</g>
				<g clip-path="url(#SVGID_6_)">
					<g>
						<defs>
							<rect id="SVGID_25_" x="27.207" y="104.928" width="6.026" height="13.409"/>
						</defs>
						<clipPath id="SVGID_26_">
							<use xlink:href="#SVGID_25_"  overflow="visible"/>
						</clipPath>
						<polygon clip-path="url(#SVGID_26_)" fill="#B04460" points="32.973,104.928 33.233,105.277 33.147,118.337 27.724,118.315 
							27.207,118.023 						"/>
					</g>
				</g>
				<polygon clip-path="url(#SVGID_6_)" fill="#F9AF87" points="32.85,117.989 27.207,118.023 26.719,104.855 32.973,104.928 				
					"/>
				<polygon clip-path="url(#SVGID_6_)" fill="#240E1B" points="32.285,105.313 32.232,112.632 32.2,117.413 27.804,117.439 
					27.415,105.236 				"/>
				<rect x="29.72" y="105.003" clip-path="url(#SVGID_6_)" fill="#F9AF87" width="0.276" height="12.838"/>
				
					<rect x="27.126" y="107.796" transform="matrix(1 -0.0062 0.0062 1 -0.6661 0.1867)" clip-path="url(#SVGID_6_)" fill="#F9AF87" width="5.534" height="0.277"/>
				<g opacity="0.25" clip-path="url(#SVGID_6_)">
					<g>
						<defs>
							<rect id="SVGID_27_" x="28.406" y="112.632" width="3.827" height="4.805"/>
						</defs>
						<clipPath id="SVGID_28_">
							<use xlink:href="#SVGID_27_"  overflow="visible"/>
						</clipPath>
						<polygon clip-path="url(#SVGID_28_)" fill="#FFFFFF" points="32.232,112.632 32.2,117.413 28.406,117.437 28.756,115.322 
													"/>
					</g>
				</g>
				<g clip-path="url(#SVGID_6_)">
					<g>
						<defs>
							<rect id="SVGID_29_" x="52.054" y="104.928" width="6.026" height="13.409"/>
						</defs>
						<clipPath id="SVGID_30_">
							<use xlink:href="#SVGID_29_"  overflow="visible"/>
						</clipPath>
						<polygon clip-path="url(#SVGID_30_)" fill="#B04460" points="57.82,104.928 58.08,105.277 57.995,118.337 52.571,118.315 
							52.054,118.023 						"/>
					</g>
				</g>
				<polygon clip-path="url(#SVGID_6_)" fill="#F9AF87" points="57.697,117.989 52.054,118.023 51.566,104.855 57.819,104.928 				
					"/>
				<polygon clip-path="url(#SVGID_6_)" fill="#240E1B" points="57.131,105.313 57.079,112.632 57.046,117.413 52.65,117.439 
					52.261,105.236 				"/>
				<rect x="54.567" y="105.003" clip-path="url(#SVGID_6_)" fill="#F9AF87" width="0.277" height="12.838"/>
				
					<rect x="51.972" y="107.796" transform="matrix(1 -0.0062 0.0062 1 -0.6656 0.3402)" clip-path="url(#SVGID_6_)" fill="#F9AF87" width="5.534" height="0.277"/>
				<g opacity="0.25" clip-path="url(#SVGID_6_)">
					<g>
						<defs>
							<rect id="SVGID_31_" x="53.252" y="112.632" width="3.827" height="4.805"/>
						</defs>
						<clipPath id="SVGID_32_">
							<use xlink:href="#SVGID_31_"  overflow="visible"/>
						</clipPath>
						<polygon clip-path="url(#SVGID_32_)" fill="#FFFFFF" points="57.079,112.632 57.046,117.413 53.252,117.437 53.603,115.322 
													"/>
					</g>
				</g>
				<polygon clip-path="url(#SVGID_6_)" fill="#F9AF87" points="47.097,121.031 37.597,121.031 36.998,104.504 47.845,104.43 				
					"/>
				<polygon clip-path="url(#SVGID_6_)" fill="#240E1B" points="45.742,105.278 45.604,108.488 45.286,115.903 39.469,115.903 
					39.101,105.327 				"/>
				<g opacity="0.25" clip-path="url(#SVGID_6_)">
					<g>
						<defs>
							<rect id="SVGID_33_" x="40.509" y="108.488" width="5.095" height="7.415"/>
						</defs>
						<clipPath id="SVGID_34_">
							<use xlink:href="#SVGID_33_"  overflow="visible"/>
						</clipPath>
						<polygon clip-path="url(#SVGID_34_)" fill="#FFFFFF" points="45.604,108.488 45.286,115.903 40.509,115.903 41.128,112.105 
													"/>
					</g>
				</g>
				<rect x="42.2" y="105.058" clip-path="url(#SVGID_6_)" fill="#F9AF87" width="0.387" height="12.008"/>
				<rect x="38.464" y="108.128" clip-path="url(#SVGID_6_)" fill="#F9AF87" width="7.969" height="0.36"/>
				<rect x="38.464" y="112.307" clip-path="url(#SVGID_6_)" fill="#F9AF87" width="7.969" height="0.359"/>
				<rect x="78.686" y="88.492" clip-path="url(#SVGID_6_)" fill="#E91E25" width="58.289" height="4.428"/>
				<rect x="134.946" y="88.492" clip-path="url(#SVGID_6_)" fill="#FBBDA2" width="2.029" height="4.428"/>
				<rect x="134.946" y="88.492" clip-path="url(#SVGID_6_)" fill="#FEDCB8" width="0.406" height="4.428"/>
				<g clip-path="url(#SVGID_6_)">
					<g>
						<defs>
							<rect id="SVGID_35_" x="78.686" y="88.492" width="58.289" height="0.849"/>
						</defs>
						<clipPath id="SVGID_36_">
							<use xlink:href="#SVGID_35_"  overflow="visible"/>
						</clipPath>
						<rect x="78.686" y="88.492" clip-path="url(#SVGID_36_)" fill="#B04460" width="58.289" height="0.849"/>
					</g>
				</g>
				<g clip-path="url(#SVGID_6_)">
					<defs>
						<polygon id="SVGID_37_" points="74.109,67.393 74.128,67.539 74.596,71.29 74.981,74.359 75.042,74.845 75.425,77.914 
							75.511,78.59 75.893,81.659 76.026,82.707 76.408,85.776 76.494,86.449 76.497,86.48 76.766,88.641 141.551,88.641 
							140.099,85.776 138.542,82.707 138.426,82.479 138.011,81.659 136.454,78.59 136.113,77.914 134.556,74.847 134.31,74.356 
							132.752,71.287 132.412,70.614 130.854,67.547 130.777,67.393 						"/>
					</defs>
					<clipPath id="SVGID_38_">
						<use xlink:href="#SVGID_37_"  overflow="visible"/>
					</clipPath>
					<linearGradient id="SVGID_39_" gradientUnits="userSpaceOnUse" x1="74.1089" y1="78.0166" x2="141.5508" y2="78.0166">
						<stop  offset="0" style="stop-color:#3B2846"/>
						<stop  offset="0.01" style="stop-color:#3B2846"/>
						<stop  offset="1" style="stop-color:#54435E"/>
					</linearGradient>
					<rect x="74.109" y="67.393" clip-path="url(#SVGID_38_)" fill="url(#SVGID_39_)" width="67.442" height="21.248"/>
				</g>
				<polygon clip-path="url(#SVGID_6_)" fill="#564760" points="132.412,70.614 109.714,70.614 108.694,67.547 130.854,67.547 				
					"/>
				<polygon clip-path="url(#SVGID_6_)" fill="#62516E" points="108.915,70.615 74.835,70.615 74.244,67.546 107.904,67.546 				"/>
				<polygon clip-path="url(#SVGID_6_)" fill="#564760" points="73.873,70.615 39.793,70.615 39.633,67.546 73.293,67.546 				"/>
				<polygon clip-path="url(#SVGID_6_)" fill="#564760" points="132.381,74.358 97.789,74.358 96.929,71.289 131.101,71.289 				"/>
				<polygon clip-path="url(#SVGID_6_)" fill="#564760" points="96.98,74.358 62.389,74.358 61.957,71.289 96.129,71.289 				"/>
				<polygon clip-path="url(#SVGID_6_)" fill="#564760" points="61.412,74.358 26.821,74.358 26.821,71.289 60.993,71.289 				"/>
				<polygon clip-path="url(#SVGID_6_)" fill="#564760" points="134.31,74.356 133.218,74.356 131.929,71.287 132.752,71.287 				
					"/>
				<polygon clip-path="url(#SVGID_6_)" fill="#564760" points="136.113,77.914 117.57,77.914 116.487,74.848 134.556,74.848 				
					"/>
				<polygon clip-path="url(#SVGID_6_)" fill="#62516E" points="116.749,77.915 81.671,77.915 81.016,74.846 115.674,74.846 				"/>
				<polygon clip-path="url(#SVGID_6_)" fill="#564760" points="80.681,77.915 45.604,77.915 45.379,74.846 80.038,74.846 				"/>
				<polygon clip-path="url(#SVGID_6_)" fill="#564760" points="138.011,81.659 105.345,81.659 104.419,78.59 136.454,78.59 				"/>
				<polygon clip-path="url(#SVGID_6_)" fill="#564760" points="104.512,81.658 68.923,81.658 68.428,78.589 103.598,78.589 				"/>
				<polygon clip-path="url(#SVGID_6_)" fill="#564760" points="67.919,81.658 32.331,81.658 32.266,78.589 67.436,78.589 				"/>
				<polygon clip-path="url(#SVGID_6_)" fill="#564760" points="140.099,85.776 126.818,85.776 125.66,82.707 138.542,82.707 				
					"/>
				<polygon clip-path="url(#SVGID_6_)" fill="#62516E" points="125.969,85.776 89.82,85.776 89.091,82.707 124.822,82.707 				"/>
				<polygon clip-path="url(#SVGID_6_)" fill="#564760" points="88.799,85.776 52.649,85.776 52.351,82.707 88.082,82.707 				"/>
				<polygon clip-path="url(#SVGID_6_)" fill="#564760" points="140.419,86.449 113.273,86.449 113.985,88.642 141.354,88.642 				
					"/>
				<polygon clip-path="url(#SVGID_6_)" fill="#564760" points="76.595,88.642 76.188,86.449 112.424,86.449 113.129,88.642 				"/>
				<polygon clip-path="url(#SVGID_6_)" fill="#564760" points="75.164,86.449 75.562,88.642 57.047,88.642 56.373,86.449 				"/>
				<g opacity="0.5" clip-path="url(#SVGID_6_)">
					<g>
						<defs>
							<rect id="SVGID_40_" x="120.413" y="67.392" width="11.103" height="15.088"/>
						</defs>
						<clipPath id="SVGID_41_">
							<use xlink:href="#SVGID_40_"  overflow="visible"/>
						</clipPath>
						<polygon clip-path="url(#SVGID_41_)" fill="#B04460" points="131.516,72.851 120.815,82.479 120.413,67.392 125.136,67.392 
													"/>
					</g>
				</g>
				<g clip-path="url(#SVGID_6_)">
					<defs>
						<polygon id="SVGID_42_" points="120.815,82.479 120.815,68.388 119.979,67.264 113.528,58.573 106.556,67.264 105.652,68.388 
							105.652,82.479 						"/>
					</defs>
					<clipPath id="SVGID_43_">
						<use xlink:href="#SVGID_42_"  overflow="visible"/>
					</clipPath>
					<linearGradient id="SVGID_44_" gradientUnits="userSpaceOnUse" x1="113.2339" y1="82.4795" x2="113.2339" y2="58.5732">
						<stop  offset="0" style="stop-color:#EE332E"/>
						<stop  offset="1" style="stop-color:#E91E25"/>
					</linearGradient>
					<rect x="105.652" y="58.573" clip-path="url(#SVGID_43_)" fill="url(#SVGID_44_)" width="15.163" height="23.906"/>
				</g>
				<polygon clip-path="url(#SVGID_6_)" fill="#54435E" points="105.674,68.387 113.553,58.685 120.789,68.396 122.45,68.387 
					113.553,57.023 103.688,68.387 				"/>
				<polygon clip-path="url(#SVGID_6_)" fill="#FBBDA2" points="106.979,68.387 113.479,60.307 119.466,68.387 120.816,68.396 
					113.553,58.685 105.675,68.387 				"/>
				<polygon clip-path="url(#SVGID_6_)" fill="#FBBDA2" points="106.981,67.264 106.981,82.479 105.653,82.479 105.653,68.388 
					106.613,67.233 				"/>
				<polygon clip-path="url(#SVGID_6_)" fill="#FBBDA2" points="120.815,68.388 120.815,82.479 119.452,82.479 119.452,67.264 
					119.979,67.264 				"/>
				<g opacity="0.5" clip-path="url(#SVGID_6_)">
					<g>
						<defs>
							<rect id="SVGID_45_" x="110.044" y="68.193" width="7.969" height="12.847"/>
						</defs>
						<clipPath id="SVGID_46_">
							<use xlink:href="#SVGID_45_"  overflow="visible"/>
						</clipPath>
						<polygon clip-path="url(#SVGID_46_)" fill="#B04460" points="117.459,80.839 110.93,81.04 110.284,80.607 110.044,69.148 
							117.349,68.193 118.013,68.645 						"/>
					</g>
				</g>
				<polygon clip-path="url(#SVGID_6_)" fill="#FEDCB8" points="116.795,80.396 110.266,80.598 109.38,68.706 117.349,68.202 				
					"/>
				<polygon clip-path="url(#SVGID_6_)" fill="#410C2B" points="116.419,69.149 116.123,75.759 115.95,79.535 111.084,79.686 
					110.625,73.515 110.328,69.534 				"/>
				<g opacity="0.5" clip-path="url(#SVGID_6_)">
					<g>
						<defs>
							<rect id="SVGID_47_" x="106.979" y="60.307" width="12.487" height="8.08"/>
						</defs>
						<clipPath id="SVGID_48_">
							<use xlink:href="#SVGID_47_"  overflow="visible"/>
						</clipPath>
						<polygon clip-path="url(#SVGID_48_)" fill="#B04460" points="106.979,68.387 113.479,60.307 119.466,68.387 113.337,63.388 
													"/>
					</g>
				</g>
				<g opacity="0.25" clip-path="url(#SVGID_6_)">
					<g>
						<defs>
							<rect id="SVGID_49_" x="110.328" y="69.149" width="6.091" height="6.609"/>
						</defs>
						<clipPath id="SVGID_50_">
							<use xlink:href="#SVGID_49_"  overflow="visible"/>
						</clipPath>
						<path clip-path="url(#SVGID_50_)" fill="#FFFFFF" d="M116.419,69.149l-0.296,6.609c-1.877-0.774-3.932-1.615-5.499-2.244
							l-0.296-3.98L116.419,69.149z"/>
					</g>
				</g>
				<polygon clip-path="url(#SVGID_6_)" fill="#240E1B" points="111.085,79.687 110.33,69.533 116.42,69.147 110.902,69.918 				"/>
				<rect x="113.153" y="68.774" clip-path="url(#SVGID_6_)" fill="#FEDCB8" width="0.442" height="11.491"/>
				<g opacity="0.5" clip-path="url(#SVGID_6_)">
					<g>
						<defs>
							<rect id="SVGID_51_" x="105.653" y="58.684" width="15.162" height="9.704"/>
						</defs>
						<clipPath id="SVGID_52_">
							<use xlink:href="#SVGID_51_"  overflow="visible"/>
						</clipPath>
						<polygon clip-path="url(#SVGID_52_)" fill="#B04460" points="105.653,68.388 113.553,58.684 120.815,68.388 113.531,59.403 
													"/>
					</g>
				</g>
				<g clip-path="url(#SVGID_6_)">
					<defs>
						<polygon id="SVGID_53_" points="15.749,72.187 17.962,94.321 79.498,94.321 81.711,72.187 48.508,51.822 						"/>
					</defs>
					<clipPath id="SVGID_54_">
						<use xlink:href="#SVGID_53_"  overflow="visible"/>
					</clipPath>
					<linearGradient id="SVGID_55_" gradientUnits="userSpaceOnUse" x1="48.73" y1="94.3213" x2="48.73" y2="51.8223">
						<stop  offset="0" style="stop-color:#EE332E"/>
						<stop  offset="1" style="stop-color:#E91E25"/>
					</linearGradient>
					<rect x="15.749" y="51.822" clip-path="url(#SVGID_54_)" fill="url(#SVGID_55_)" width="65.962" height="42.499"/>
				</g>
				<polygon clip-path="url(#SVGID_6_)" fill="#FBBDA2" points="15.797,72.656 17.704,91.776 19.472,91.757 18.183,72.629 				"/>
				<polygon clip-path="url(#SVGID_6_)" fill="#FEDCB8" points="39.457,115.608 39.467,115.903 45.284,115.903 45.297,115.608 				
					"/>
				<polygon clip-path="url(#SVGID_6_)" fill="#F9AF87" points="17.044,103.01 18.099,121.015 19.423,121.015 18.597,103.01 				"/>
				<g clip-path="url(#SVGID_6_)">
					<g>
						<defs>
							<rect id="SVGID_56_" x="16.988" y="101.848" width="53.656" height="21.36"/>
						</defs>
						<clipPath id="SVGID_57_">
							<use xlink:href="#SVGID_56_"  overflow="visible"/>
						</clipPath>
						<polygon clip-path="url(#SVGID_57_)" fill="#B04460" points="18.184,121.438 16.988,102.104 70.644,101.848 70.312,122.876 
							67.656,123.208 66.106,107.824 25.377,107.824 22.531,121.158 						"/>
					</g>
				</g>
				<g clip-path="url(#SVGID_6_)">
					<defs>
						<polygon id="SVGID_58_" points="151.88,92.626 102.15,92.626 102.15,130.401 149.667,130.401 150.22,120.959 						"/>
					</defs>
					<clipPath id="SVGID_59_">
						<use xlink:href="#SVGID_58_"  overflow="visible"/>
					</clipPath>
					<linearGradient id="SVGID_60_" gradientUnits="userSpaceOnUse" x1="102.1504" y1="111.5137" x2="151.8799" y2="111.5137">
						<stop  offset="0" style="stop-color:#E91E25"/>
						<stop  offset="1" style="stop-color:#EE332E"/>
					</linearGradient>
					<rect x="102.15" y="92.626" clip-path="url(#SVGID_59_)" fill="url(#SVGID_60_)" width="49.729" height="37.775"/>
				</g>
				<polygon clip-path="url(#SVGID_6_)" fill="#FBBDA2" points="151.274,102.954 150.22,120.959 148.896,120.959 149.722,102.954 
									"/>
				<polygon clip-path="url(#SVGID_6_)" fill="#FEDCB8" points="149.722,102.954 148.896,120.959 149.08,120.959 149.906,102.954 
									"/>
				<g clip-path="url(#SVGID_6_)">
					<g>
						<defs>
							<rect id="SVGID_61_" x="97.56" y="102.104" width="53.766" height="2.178"/>
						</defs>
						<clipPath id="SVGID_62_">
							<use xlink:href="#SVGID_61_"  overflow="visible"/>
						</clipPath>
						<polygon clip-path="url(#SVGID_62_)" fill="#B04460" points="151.326,102.104 151.198,104.282 97.56,104.282 97.56,102.104 
													"/>
					</g>
				</g>
				<polygon clip-path="url(#SVGID_6_)" fill="#F9AF87" points="23.717,121.105 22.531,121.158 21.282,121.216 20.052,104.229 
					19.879,102.237 19.844,101.848 23.053,102.18 23.053,102.237 23.062,102.494 23.124,104.229 				"/>
				<polygon clip-path="url(#SVGID_6_)" fill="#F9AF87" points="62.343,101.848 62.308,102.237 62.272,102.64 62.135,104.229 
					61.347,121.251 60.475,121.188 59.279,121.105 59.063,104.229 59.134,102.237 59.134,102.18 				"/>
				<polygon clip-path="url(#SVGID_6_)" fill="#E88C62" points="23.717,121.105 22.531,121.158 22.097,104.712 22.044,102.72 
					22.04,102.662 23.062,102.494 23.124,104.229 				"/>
				<polygon clip-path="url(#SVGID_6_)" fill="#E88C62" points="62.272,102.64 62.135,104.229 61.347,121.251 60.475,121.189 
					60.78,104.84 60.851,102.848 60.851,102.786 				"/>
				<g opacity="0.5" clip-path="url(#SVGID_6_)">
					<g>
						<defs>
							<rect id="SVGID_63_" x="19.879" y="102.237" width="3.245" height="1.992"/>
						</defs>
						<clipPath id="SVGID_64_">
							<use xlink:href="#SVGID_63_"  overflow="visible"/>
						</clipPath>
						<polygon clip-path="url(#SVGID_64_)" fill="#B04460" points="23.124,104.229 20.052,104.229 19.879,102.237 23.053,102.237 
													"/>
					</g>
				</g>
				<g opacity="0.5" clip-path="url(#SVGID_6_)">
					<g>
						<defs>
							<rect id="SVGID_65_" x="59.063" y="102.237" width="3.245" height="1.992"/>
						</defs>
						<clipPath id="SVGID_66_">
							<use xlink:href="#SVGID_65_"  overflow="visible"/>
						</clipPath>
						<polygon clip-path="url(#SVGID_66_)" fill="#B04460" points="62.308,102.237 62.135,104.229 59.063,104.229 59.134,102.237 
													"/>
					</g>
				</g>
				<rect x="12.594" y="100.962" clip-path="url(#SVGID_6_)" fill="#F9AF87" width="143.048" height="1.992"/>
				<g opacity="0.5" clip-path="url(#SVGID_6_)">
					<g>
						<defs>
							<rect id="SVGID_67_" x="12.594" y="100.962" width="143.048" height="0.774"/>
						</defs>
						<clipPath id="SVGID_68_">
							<use xlink:href="#SVGID_67_"  overflow="visible"/>
						</clipPath>
						<rect x="12.594" y="100.962" clip-path="url(#SVGID_68_)" fill="#B04460" width="143.048" height="0.774"/>
					</g>
				</g>
				<g clip-path="url(#SVGID_6_)">
					<defs>
						<polygon id="SVGID_69_" points="95.51,91.298 95.745,99.063 95.803,101.037 113.958,101.081 114.604,101.081 137.479,101.139 
							138.014,101.139 156.453,101.184 155.589,99.466 155.386,99.063 154.062,96.442 153.73,95.778 152.207,92.754 151.105,90.727 
													"/>
					</defs>
					<clipPath id="SVGID_70_">
						<use xlink:href="#SVGID_69_"  overflow="visible"/>
					</clipPath>
					<linearGradient id="SVGID_71_" gradientUnits="userSpaceOnUse" x1="95.5103" y1="95.9551" x2="156.4531" y2="95.9551">
						<stop  offset="0" style="stop-color:#3B2846"/>
						<stop  offset="0.01" style="stop-color:#3B2846"/>
						<stop  offset="1" style="stop-color:#54435E"/>
					</linearGradient>
					<rect x="95.51" y="90.727" clip-path="url(#SVGID_70_)" fill="url(#SVGID_71_)" width="60.943" height="10.457"/>
				</g>
				<polygon clip-path="url(#SVGID_6_)" fill="#564760" points="152.485,93.942 129.788,93.942 128.768,91.176 150.928,91.176 				
					"/>
				<polygon clip-path="url(#SVGID_6_)" fill="#62516E" points="128.989,93.943 94.909,93.943 94.317,91.175 127.978,91.175 				"/>
				<polygon clip-path="url(#SVGID_6_)" fill="#564760" points="93.738,92.947 93.738,93.943 93.947,93.943 				"/>
				<polygon clip-path="url(#SVGID_6_)" fill="#564760" points="152.455,97.32 117.863,97.32 117.002,94.552 151.174,94.552 				"/>
				<polygon clip-path="url(#SVGID_6_)" fill="#564760" points="93.738,97.32 117.054,97.32 116.203,94.552 93.738,94.552 				"/>
				<polygon clip-path="url(#SVGID_6_)" fill="#564760" points="154.383,97.318 153.292,97.318 152.003,94.55 152.826,94.55 				"/>
				<polygon clip-path="url(#SVGID_6_)" fill="#564760" points="156.186,100.527 137.644,100.527 136.561,97.761 154.629,97.761 
									"/>
				<polygon clip-path="url(#SVGID_6_)" fill="#62516E" points="136.822,100.528 101.745,100.528 101.089,97.759 135.748,97.759 
									"/>
				<polygon clip-path="url(#SVGID_6_)" fill="#564760" points="93.738,100.528 100.755,100.528 100.111,97.759 93.738,97.759 				
					"/>
				<g clip-path="url(#SVGID_6_)">
					<defs>
						<polygon id="SVGID_72_" points="16.782,91.739 11.838,101.184 72.489,101.036 72.784,91.297 						"/>
					</defs>
					<clipPath id="SVGID_73_">
						<use xlink:href="#SVGID_72_"  overflow="visible"/>
					</clipPath>
					<linearGradient id="SVGID_74_" gradientUnits="userSpaceOnUse" x1="11.8379" y1="96.2402" x2="72.7837" y2="96.2402">
						<stop  offset="0" style="stop-color:#54435E"/>
						<stop  offset="0.99" style="stop-color:#3B2846"/>
						<stop  offset="1" style="stop-color:#3B2846"/>
					</linearGradient>
					<rect x="11.838" y="91.297" clip-path="url(#SVGID_73_)" fill="url(#SVGID_74_)" width="60.946" height="9.887"/>
				</g>
				<polygon clip-path="url(#SVGID_6_)" fill="#564760" points="15.76,94.469 38.457,94.469 39.477,91.788 17.241,91.832 				"/>
				<polygon clip-path="url(#SVGID_6_)" fill="#62516E" points="39.256,94.47 73.336,94.47 73.927,91.786 40.267,91.786 				"/>
				<polygon clip-path="url(#SVGID_6_)" fill="#564760" points="74.506,93.505 74.506,94.47 74.298,94.47 				"/>
				<polygon clip-path="url(#SVGID_6_)" fill="#564760" points="15.79,97.742 50.382,97.742 51.242,95.059 17.07,95.059 				"/>
				<polygon clip-path="url(#SVGID_6_)" fill="#564760" points="74.506,97.742 51.19,97.742 52.042,95.059 74.506,95.059 				"/>
				<polygon clip-path="url(#SVGID_6_)" fill="#564760" points="13.862,97.74 14.953,97.74 16.242,95.057 15.419,95.057 				"/>
				<polygon clip-path="url(#SVGID_6_)" fill="#564760" points="12.058,100.851 30.6,100.851 31.684,98.17 13.615,98.17 				"/>
				<polygon clip-path="url(#SVGID_6_)" fill="#62516E" points="31.422,100.852 66.5,100.852 67.155,98.168 32.497,98.168 				"/>
				<polygon clip-path="url(#SVGID_6_)" fill="#564760" points="74.506,100.852 67.49,100.852 68.133,98.168 74.506,98.168 				"/>
				<g opacity="0.5" clip-path="url(#SVGID_6_)">
					<g>
						<defs>
							<rect id="SVGID_75_" x="74.11" y="67.392" width="32.614" height="29.586"/>
						</defs>
						<clipPath id="SVGID_76_">
							<use xlink:href="#SVGID_75_"  overflow="visible"/>
						</clipPath>
						<polygon clip-path="url(#SVGID_76_)" fill="#B04460" points="80.064,88.642 81.711,72.187 74.128,67.538 74.11,67.392 
							80.83,67.392 87.799,72.739 100.216,88.642 106.724,96.978 79.648,92.808 						"/>
					</g>
				</g>
				<polygon clip-path="url(#SVGID_6_)" fill="#FBBDA2" points="151.733,120.959 151.473,125.328 151.167,130.401 17.187,130.401 
					16.607,120.959 				"/>
				<path clip-path="url(#SVGID_6_)" fill="#54435E" d="M15.896,72.666l32.612-20.844c0.408,0,28.762,18.067,33.203,20.89
					l2.275-0.01L48.73,49.83L13.493,72.702L15.896,72.666z"/>
				<g clip-path="url(#SVGID_6_)">
					<g>
						<defs>
							<rect id="SVGID_77_" x="145.931" y="105.168" width="5.542" height="25.233"/>
						</defs>
						<clipPath id="SVGID_78_">
							<use xlink:href="#SVGID_77_"  overflow="visible"/>
						</clipPath>
						<polygon clip-path="url(#SVGID_78_)" fill="#B04460" points="151.473,125.328 151.167,130.401 145.931,130.401 
							146.272,120.846 146.753,105.168 149.299,120.959 150.552,120.959 						"/>
					</g>
				</g>
				<polygon clip-path="url(#SVGID_6_)" fill="#FEDCB8" points="146.014,130.401 109.934,130.401 109.122,105.168 147.065,104.67 
									"/>
				<polygon clip-path="url(#SVGID_6_)" fill="#F9AF87" points="145.35,106.496 145.23,110.648 145.221,110.976 145.15,113.433 
					145.142,113.765 145.071,116.218 145.062,116.55 144.991,119.002 144.982,119.334 144.912,121.787 144.903,122.118 
					144.836,124.571 144.823,124.903 144.757,127.355 144.743,127.692 144.668,130.401 111.275,130.401 111.191,127.692 
					111.177,127.355 111.103,124.903 111.094,124.571 111.014,122.118 111.005,121.787 110.925,119.334 110.917,119.002 
					110.837,116.55 110.828,116.218 110.753,113.765 110.739,113.433 110.664,110.976 110.655,110.648 110.522,106.496 				"/>
				<polygon clip-path="url(#SVGID_6_)" fill="#EF9369" points="145.23,110.648 145.222,110.976 110.664,110.976 110.655,110.648 
									"/>
				<polygon clip-path="url(#SVGID_6_)" fill="#EF9369" points="145.15,113.433 145.142,113.765 110.752,113.765 110.74,113.433 
									"/>
				<polygon clip-path="url(#SVGID_6_)" fill="#EF9369" points="145.071,116.218 145.062,116.55 110.837,116.55 110.828,116.218 
									"/>
				<polygon clip-path="url(#SVGID_6_)" fill="#EF9369" points="144.991,119.002 144.982,119.334 110.925,119.334 110.917,119.002 
									"/>
				<polygon clip-path="url(#SVGID_6_)" fill="#EF9369" points="144.912,121.787 144.903,122.119 111.014,122.119 111.005,121.787 
									"/>
				<polygon clip-path="url(#SVGID_6_)" fill="#EF9369" points="144.836,124.571 144.823,124.903 111.103,124.903 111.094,124.571 
									"/>
				<polygon clip-path="url(#SVGID_6_)" fill="#EF9369" points="144.757,127.355 144.743,127.692 111.191,127.692 111.177,127.355 
									"/>
				<g clip-path="url(#SVGID_6_)">
					<g>
						<defs>
							<rect id="SVGID_79_" x="104.178" y="96.46" width="9.337" height="33.941"/>
						</defs>
						<clipPath id="SVGID_80_">
							<use xlink:href="#SVGID_79_"  overflow="visible"/>
						</clipPath>
						<polygon clip-path="url(#SVGID_80_)" fill="#B04460" points="113.515,130.401 104.178,130.401 106.281,96.46 111.041,106.496 
													"/>
					</g>
				</g>
				<polygon clip-path="url(#SVGID_6_)" fill="#FFECDA" points="109.122,105.168 147.065,104.67 146.014,130.401 146.753,105.168 
									"/>
				<polygon clip-path="url(#SVGID_6_)" fill="#FEDCB8" points="143.765,107.527 143.397,110.144 143.101,112.251 114.44,112.322 
					113.068,112.326 112.555,107.527 				"/>
				<polygon clip-path="url(#SVGID_6_)" fill="#410C2B" points="142.747,108.413 142.499,110.184 142.331,111.365 114.157,111.437 
					113.865,111.437 113.537,108.413 				"/>
				<polygon clip-path="url(#SVGID_6_)" fill="#240E1B" points="113.864,111.438 113.539,108.414 142.745,108.414 142.615,109.341 
					113.958,109.005 114.139,111.437 				"/>
				<g opacity="0.25" clip-path="url(#SVGID_6_)">
					<g>
						<defs>
							<rect id="SVGID_81_" x="114.157" y="110.184" width="28.342" height="1.253"/>
						</defs>
						<clipPath id="SVGID_82_">
							<use xlink:href="#SVGID_81_"  overflow="visible"/>
						</clipPath>
						<polygon clip-path="url(#SVGID_82_)" fill="#FFFFFF" points="142.499,110.184 142.331,111.365 114.157,111.437 						"/>
					</g>
				</g>
				<rect x="127.808" y="108.045" clip-path="url(#SVGID_6_)" fill="#FEDCB8" width="0.591" height="4.133"/>
				<rect x="118.382" y="108.045" clip-path="url(#SVGID_6_)" fill="#FEDCB8" width="0.59" height="4.133"/>
				<rect x="137.234" y="108.045" clip-path="url(#SVGID_6_)" fill="#FEDCB8" width="0.59" height="4.133"/>
				<g clip-path="url(#SVGID_6_)">
					<g>
						<defs>
							<rect id="SVGID_83_" x="110.524" y="106.496" width="34.826" height="23.905"/>
						</defs>
						<clipPath id="SVGID_84_">
							<use xlink:href="#SVGID_83_"  overflow="visible"/>
						</clipPath>
						<polygon clip-path="url(#SVGID_84_)" fill="#B04460" points="111.275,130.401 110.524,106.496 145.35,106.496 
							145.294,108.239 113.069,108.709 112.258,130.401 						"/>
					</g>
				</g>
				<g clip-path="url(#SVGID_6_)">
					<g>
						<defs>
							<rect id="SVGID_85_" x="33.2" y="120.959" width="18.408" height="9.442"/>
						</defs>
						<clipPath id="SVGID_86_">
							<use xlink:href="#SVGID_85_"  overflow="visible"/>
						</clipPath>
						<polygon clip-path="url(#SVGID_86_)" fill="#B04460" points="51.607,120.959 50.227,130.401 34.342,130.401 33.2,120.959 
													"/>
					</g>
				</g>
				<g opacity="0.5" clip-path="url(#SVGID_6_)">
					<g>
						<defs>
							<rect id="SVGID_87_" x="33.2" y="120.959" width="8.695" height="9.442"/>
						</defs>
						<clipPath id="SVGID_88_">
							<use xlink:href="#SVGID_87_"  overflow="visible"/>
						</clipPath>
						<polygon clip-path="url(#SVGID_88_)" fill="#B04460" points="41.895,120.959 41.244,130.401 34.342,130.401 33.2,120.959 
													"/>
					</g>
				</g>
				<polygon clip-path="url(#SVGID_6_)" fill="#FBBDA2" points="48.232,123.173 36.39,123.173 36.224,120.959 48.545,120.959 				
					"/>
				<polygon clip-path="url(#SVGID_6_)" fill="#FBBDA2" points="49.062,125.386 35.56,125.386 35.301,123.173 49.283,123.173 				
					"/>
				<polygon clip-path="url(#SVGID_6_)" fill="#FBBDA2" points="49.836,127.6 34.785,127.6 34.397,125.386 50.224,125.386 				"/>
				<polygon clip-path="url(#SVGID_6_)" fill="#FBBDA2" points="50.224,129.813 34.397,129.813 34.194,127.6 50.39,127.6 				"/>
				<rect x="32.958" y="129.813" clip-path="url(#SVGID_6_)" fill="#FBBDA2" width="18.649" height="0.588"/>
				<polygon clip-path="url(#SVGID_6_)" fill="#E88C62" points="48.545,120.959 36.224,120.959 36.39,123.172 36.74,123.172 
					36.888,121.474 48.478,121.438 				"/>
				<polygon clip-path="url(#SVGID_6_)" fill="#E88C62" points="49.283,123.173 35.301,123.173 35.56,125.386 35.947,125.386 
					35.781,123.512 49.238,123.624 49.422,123.173 				"/>
				<polygon clip-path="url(#SVGID_6_)" fill="#E88C62" points="50.224,125.386 34.397,125.386 34.785,127.6 35.117,127.562 
					35.117,125.938 50.121,125.973 				"/>
				<polygon clip-path="url(#SVGID_6_)" fill="#E88C62" points="50.39,127.6 34.194,127.6 34.397,129.813 35.006,129.793 
					34.951,128.188 50.39,128.188 				"/>
				<polygon clip-path="url(#SVGID_6_)" fill="#FEDCB8" points="50.348,129.783 51.502,120.912 66.187,120.959 52.301,122.036 				
					"/>
				<polygon clip-path="url(#SVGID_6_)" fill="#FBBDA2" points="15.797,72.664 18.183,72.629 48.73,53.316 79.276,72.703 
					81.711,72.685 48.508,51.822 				"/>
				<polygon clip-path="url(#SVGID_6_)" fill="#FEDCB8" points="31.243,120.994 30.413,120.994 30.247,115.811 31.298,115.811 				
					"/>
				
					<rect x="28.587" y="118.31" transform="matrix(0.0107 -0.9999 0.9999 0.0107 -87.5516 148.3079)" clip-path="url(#SVGID_6_)" fill="#F9AF87" width="5.184" height="0.185"/>
				<polygon clip-path="url(#SVGID_6_)" fill="#FEDCB8" points="27.992,120.994 27.162,120.994 26.996,115.811 28.047,115.811 				
					"/>
				
					<rect x="25.335" y="118.31" transform="matrix(0.0106 -0.9999 0.9999 0.0106 -90.7656 145.0678)" clip-path="url(#SVGID_6_)" fill="#F9AF87" width="5.184" height="0.184"/>
				<polygon clip-path="url(#SVGID_6_)" fill="#FEDCB8" points="24.741,120.994 23.911,120.994 23.745,115.811 24.796,115.811 				
					"/>
				
					<rect x="22.084" y="118.31" transform="matrix(0.0107 -0.9999 0.9999 0.0107 -93.9842 141.8058)" clip-path="url(#SVGID_6_)" fill="#F9AF87" width="5.184" height="0.185"/>
				<polygon clip-path="url(#SVGID_6_)" fill="#FEDCB8" points="21.49,120.994 20.66,120.994 20.494,115.811 21.545,115.811 				"/>
				
					<rect x="18.833" y="118.31" transform="matrix(0.0107 -0.9999 0.9999 0.0107 -97.2003 138.555)" clip-path="url(#SVGID_6_)" fill="#F9AF87" width="5.184" height="0.185"/>
				<polygon clip-path="url(#SVGID_6_)" fill="#FEDCB8" points="18.239,120.994 17.409,120.994 17.243,115.811 18.294,115.811 				
					"/>
				
					<rect x="15.582" y="118.31" transform="matrix(0.0106 -0.9999 0.9999 0.0106 -100.415 135.3151)" clip-path="url(#SVGID_6_)" fill="#F9AF87" width="5.184" height="0.185"/>
				<polygon clip-path="url(#SVGID_6_)" fill="#FEDCB8" points="66.604,120.994 65.774,120.994 65.608,115.811 66.659,115.811 				
					"/>
				
					<rect x="63.947" y="118.31" transform="matrix(0.0106 -0.9999 0.9999 0.0106 -52.5646 183.6776)" clip-path="url(#SVGID_6_)" fill="#F9AF87" width="5.184" height="0.185"/>
				<polygon clip-path="url(#SVGID_6_)" fill="#FEDCB8" points="63.353,120.994 62.523,120.994 62.357,115.811 63.408,115.811 				
					"/>
				
					<rect x="60.696" y="118.31" transform="matrix(0.0106 -0.9999 0.9999 0.0106 -55.7809 180.4268)" clip-path="url(#SVGID_6_)" fill="#F9AF87" width="5.184" height="0.185"/>
				<polygon clip-path="url(#SVGID_6_)" fill="#FEDCB8" points="60.102,120.994 59.272,120.994 59.106,115.811 60.157,115.811 				
					"/>
				
					<rect x="57.445" y="118.31" transform="matrix(0.0106 -0.9999 0.9999 0.0106 -58.9973 177.1761)" clip-path="url(#SVGID_6_)" fill="#F9AF87" width="5.184" height="0.185"/>
				<polygon clip-path="url(#SVGID_6_)" fill="#FEDCB8" points="56.851,120.994 56.021,120.994 55.854,115.811 56.906,115.811 				
					"/>
				
					<rect x="54.194" y="118.31" transform="matrix(0.0107 -0.9999 0.9999 0.0107 -62.2189 173.9141)" clip-path="url(#SVGID_6_)" fill="#F9AF87" width="5.184" height="0.185"/>
				<polygon clip-path="url(#SVGID_6_)" fill="#FEDCB8" points="53.6,120.994 52.77,120.994 52.604,115.811 53.655,115.811 				"/>
				
					<rect x="50.943" y="118.31" transform="matrix(0.0107 -0.9999 0.9999 0.0107 -65.4352 170.663)" clip-path="url(#SVGID_6_)" fill="#F9AF87" width="5.184" height="0.185"/>
				<polygon clip-path="url(#SVGID_6_)" fill="#FEDCB8" points="17.188,130.401 16.607,120.959 33.2,120.959 17.52,121.77 				"/>
				<rect x="16.579" y="115.626" clip-path="url(#SVGID_6_)" fill="#FEDCB8" width="15.827" height="0.72"/>
				<rect x="51.607" y="115.626" clip-path="url(#SVGID_6_)" fill="#FEDCB8" width="15.827" height="0.72"/>
				<polygon clip-path="url(#SVGID_6_)" fill="#FBBDA2" points="81.711,72.685 79.756,91.776 77.988,91.757 79.276,72.703 				"/>
				<g clip-path="url(#SVGID_6_)">
					<defs>
						<polygon id="SVGID_89_" points="64.667,96.46 66.296,122.729 66.881,132.173 104.067,132.173 104.652,122.729 106.281,96.46 
							85.328,79.934 						"/>
					</defs>
					<clipPath id="SVGID_90_">
						<use xlink:href="#SVGID_89_"  overflow="visible"/>
					</clipPath>
					<linearGradient id="SVGID_91_" gradientUnits="userSpaceOnUse" x1="85.4741" y1="132.1729" x2="85.4741" y2="79.9336">
						<stop  offset="0" style="stop-color:#EF4445"/>
						<stop  offset="1" style="stop-color:#EE332E"/>
					</linearGradient>
					<rect x="64.667" y="79.934" clip-path="url(#SVGID_90_)" fill="url(#SVGID_91_)" width="41.614" height="52.239"/>
				</g>
				<polygon clip-path="url(#SVGID_6_)" fill="#FEDCB8" points="105.691,122.729 105.075,132.173 65.874,132.173 65.258,122.729 
									"/>
				<polygon clip-path="url(#SVGID_6_)" fill="#FFECDA" points="65.874,132.173 65.257,122.729 105.691,122.729 105.623,123.767 
					67.84,123.909 66.881,132.173 				"/>
				<g opacity="0.5" clip-path="url(#SVGID_6_)">
					<g>
						<defs>
							<rect id="SVGID_92_" x="18.184" y="53.316" width="61.093" height="19.387"/>
						</defs>
						<clipPath id="SVGID_93_">
							<use xlink:href="#SVGID_92_"  overflow="visible"/>
						</clipPath>
						<polygon clip-path="url(#SVGID_93_)" fill="#B04460" points="18.184,72.629 48.73,53.316 79.277,72.703 48.754,55.493 						
							"/>
					</g>
				</g>
				<g opacity="0.5" clip-path="url(#SVGID_6_)">
					<g>
						<defs>
							<rect id="SVGID_94_" x="15.797" y="51.822" width="65.914" height="20.862"/>
						</defs>
						<clipPath id="SVGID_95_">
							<use xlink:href="#SVGID_94_"  overflow="visible"/>
						</clipPath>
						<polygon clip-path="url(#SVGID_95_)" fill="#B04460" points="15.797,72.656 48.508,51.822 81.711,72.685 48.73,52.818 						
							"/>
					</g>
				</g>
				<polygon clip-path="url(#SVGID_6_)" fill="#FEDCB8" points="85.328,79.934 64.667,96.46 66.296,122.729 68.209,122.729 
					66.381,96.958 85.35,81.041 104.852,96.689 102.813,122.729 104.652,122.729 106.281,96.46 				"/>
				<polygon clip-path="url(#SVGID_6_)" fill="#7B6090" points="64.667,96.46 62.882,96.46 85.336,78.384 108.313,96.46 
					106.281,96.46 85.328,79.934 				"/>
				<g opacity="0.5" clip-path="url(#SVGID_6_)">
					<g>
						<defs>
							<rect id="SVGID_96_" x="66.326" y="81.068" width="38.47" height="15.903"/>
						</defs>
						<clipPath id="SVGID_97_">
							<use xlink:href="#SVGID_96_"  overflow="visible"/>
						</clipPath>
						<polygon clip-path="url(#SVGID_97_)" fill="#B04460" points="66.326,96.972 85.35,81.068 104.796,96.703 85.419,82.493 						
							"/>
					</g>
				</g>
				<g opacity="0.5" clip-path="url(#SVGID_6_)">
					<g>
						<defs>
							<rect id="SVGID_98_" x="64.667" y="79.934" width="41.614" height="16.526"/>
						</defs>
						<clipPath id="SVGID_99_">
							<use xlink:href="#SVGID_98_"  overflow="visible"/>
						</clipPath>
						<polygon clip-path="url(#SVGID_99_)" fill="#B04460" points="64.667,96.46 85.328,79.934 106.281,96.46 85.35,80.57 						"/>
					</g>
				</g>
				<rect x="97.707" y="108.414" clip-path="url(#SVGID_6_)" fill="#E91E25" width="3.708" height="1.365"/>
				<rect x="95.714" y="110.019" clip-path="url(#SVGID_6_)" fill="#E91E25" width="3.708" height="1.365"/>
				<rect x="99.644" y="110.019" clip-path="url(#SVGID_6_)" fill="#E91E25" width="3.708" height="1.365"/>
				<rect x="55.872" y="64.476" clip-path="url(#SVGID_6_)" fill="#CC1F26" width="3.708" height="1.365"/>
				<rect x="53.879" y="66.08" clip-path="url(#SVGID_6_)" fill="#CC1F26" width="3.708" height="1.365"/>
				<rect x="57.808" y="66.08" clip-path="url(#SVGID_6_)" fill="#CC1F26" width="3.708" height="1.365"/>
				<rect x="94.166" y="102.99" clip-path="url(#SVGID_6_)" fill="#F15F61" width="3.708" height="1.365"/>
				<rect x="71.034" y="96.793" clip-path="url(#SVGID_6_)" fill="#E91E25" width="3.708" height="1.365"/>
				<rect x="46.354" y="59.938" clip-path="url(#SVGID_6_)" fill="#CC1F26" width="3.708" height="1.365"/>
				<rect x="36.103" y="78.776" clip-path="url(#SVGID_6_)" fill="#CC1F26" width="3.708" height="1.365"/>
				<rect x="37.211" y="80.577" clip-path="url(#SVGID_6_)" fill="#CC1F26" width="3.708" height="1.365"/>
				<rect x="39.049" y="62.705" clip-path="url(#SVGID_6_)" fill="#CC1F26" width="3.708" height="1.365"/>
				<rect x="71.889" y="73.828" clip-path="url(#SVGID_6_)" fill="#CC1F26" width="3.707" height="1.365"/>
				<rect x="73.881" y="75.599" clip-path="url(#SVGID_6_)" fill="#CC1F26" width="3.708" height="1.365"/>
				<rect x="32.156" y="67.52" clip-path="url(#SVGID_6_)" fill="#F15F61" width="3.708" height="1.365"/>
				<rect x="70.387" y="81.095" clip-path="url(#SVGID_6_)" fill="#F15F61" width="3.708" height="1.365"/>
				<rect x="20.203" y="82.737" clip-path="url(#SVGID_6_)" fill="#CC1F26" width="3.708" height="1.365"/>
				<rect x="21.519" y="77.404" clip-path="url(#SVGID_6_)" fill="#CC1F26" width="3.708" height="1.365"/>
				<rect x="30.551" y="65.97" clip-path="url(#SVGID_6_)" fill="#F15F61" width="3.708" height="1.365"/>
				<rect x="69.319" y="98.343" clip-path="url(#SVGID_6_)" fill="#E91E25" width="3.708" height="1.365"/>
				<rect x="73.192" y="108.968" clip-path="url(#SVGID_6_)" fill="#E91E25" width="3.708" height="1.364"/>
				<rect x="76.845" y="92.366" clip-path="url(#SVGID_6_)" fill="#F15F61" width="3.708" height="1.365"/>
				<rect x="69.208" y="108.968" clip-path="url(#SVGID_6_)" fill="#E91E25" width="3.708" height="1.364"/>
				<rect x="71.145" y="110.572" clip-path="url(#SVGID_6_)" fill="#F15F61" width="3.708" height="1.365"/>
				<rect x="93.833" y="119.261" clip-path="url(#SVGID_6_)" fill="#E91E25" width="3.708" height="1.365"/>
				<rect x="91.896" y="92.588" clip-path="url(#SVGID_6_)" fill="#E91E25" width="3.708" height="1.365"/>
				<path clip-path="url(#SVGID_6_)" fill="#FEDCB8" d="M89.133,89.994c0,1.842-1.665,3.334-3.717,3.334s-3.717-1.492-3.717-3.334
					c0-1.841,1.664-3.333,3.717-3.333S89.133,88.153,89.133,89.994"/>
				<path clip-path="url(#SVGID_6_)" fill="#410C2B" d="M88.302,89.995c0,0.574-0.208,1.104-0.56,1.532
					c-0.526,0.641-1.371,1.056-2.327,1.056c-1.593,0-2.884-1.158-2.884-2.588c0-0.094,0.005-0.185,0.017-0.276
					c0.152-1.3,1.377-2.313,2.867-2.313C87.01,87.405,88.302,88.566,88.302,89.995"/>
				<g opacity="0.25" clip-path="url(#SVGID_6_)">
					<g>
						<defs>
							<rect id="SVGID_100_" x="82.547" y="87.405" width="5.754" height="4.122"/>
						</defs>
						<clipPath id="SVGID_101_">
							<use xlink:href="#SVGID_100_"  overflow="visible"/>
						</clipPath>
						<path clip-path="url(#SVGID_101_)" fill="#FFFFFF" d="M88.302,89.996c0,0.573-0.208,1.103-0.56,1.531l-5.194-1.809
							c0.152-1.3,1.377-2.313,2.867-2.313C87.01,87.405,88.302,88.566,88.302,89.996"/>
					</g>
				</g>
				<path clip-path="url(#SVGID_6_)" fill="#240E1B" d="M83.13,90.041c0-1.415,1.266-2.563,2.837-2.586
					c-0.179-0.031-0.362-0.049-0.551-0.049c-1.594,0-2.886,1.159-2.886,2.589c0,1.429,1.292,2.588,2.886,2.588
					c0.017,0,0.033-0.002,0.049-0.002C84.135,92.35,83.13,91.301,83.13,90.041"/>
				<g clip-path="url(#SVGID_6_)">
					<g>
						<defs>
							<rect id="SVGID_102_" x="26.701" y="72.004" width="9.206" height="18.154"/>
						</defs>
						<clipPath id="SVGID_103_">
							<use xlink:href="#SVGID_102_"  overflow="visible"/>
						</clipPath>
						<polygon clip-path="url(#SVGID_103_)" fill="#B04460" points="35.51,72.004 35.907,72.477 35.762,90.158 27.49,90.134 
							26.701,89.739 						"/>
					</g>
				</g>
				<polygon clip-path="url(#SVGID_6_)" fill="#FBBDA2" points="35.309,89.687 26.7,89.739 25.971,71.913 35.51,72.004 				"/>
				<polygon clip-path="url(#SVGID_6_)" fill="#240E1B" points="34.46,72.526 34.372,82.434 34.317,88.907 27.612,88.948 
					27.031,72.428 				"/>
				<rect x="30.542" y="72.108" clip-path="url(#SVGID_6_)" fill="#FBBDA2" width="0.422" height="17.381"/>
				
					<rect x="26.587" y="75.891" transform="matrix(1 -0.0061 0.0061 1 -0.4659 0.1903)" clip-path="url(#SVGID_6_)" fill="#FBBDA2" width="8.442" height="0.375"/>
				<g opacity="0.25" clip-path="url(#SVGID_6_)">
					<g>
						<defs>
							<rect id="SVGID_104_" x="28.53" y="82.435" width="5.842" height="6.509"/>
						</defs>
						<clipPath id="SVGID_105_">
							<use xlink:href="#SVGID_104_"  overflow="visible"/>
						</clipPath>
						<polygon clip-path="url(#SVGID_105_)" fill="#FFFFFF" points="34.372,82.435 34.317,88.907 28.53,88.943 29.066,86.081 						
							"/>
					</g>
				</g>
				<g clip-path="url(#SVGID_6_)">
					<g>
						<defs>
							<rect id="SVGID_106_" x="43.739" y="72.004" width="9.206" height="18.154"/>
						</defs>
						<clipPath id="SVGID_107_">
							<use xlink:href="#SVGID_106_"  overflow="visible"/>
						</clipPath>
						<polygon clip-path="url(#SVGID_107_)" fill="#B04460" points="52.548,72.004 52.945,72.477 52.8,90.158 44.527,90.134 
							43.739,89.739 						"/>
					</g>
				</g>
				<polygon clip-path="url(#SVGID_6_)" fill="#FBBDA2" points="52.346,89.687 43.739,89.739 43.009,71.913 52.548,72.004 				"/>
				<polygon clip-path="url(#SVGID_6_)" fill="#240E1B" points="51.498,72.526 51.41,82.434 51.355,88.907 44.65,88.948 
					44.069,72.428 				"/>
				<rect x="47.579" y="72.108" clip-path="url(#SVGID_6_)" fill="#FBBDA2" width="0.422" height="17.381"/>
				
					<rect x="43.625" y="75.891" transform="matrix(1 -0.0061 0.0061 1 -0.4656 0.2948)" clip-path="url(#SVGID_6_)" fill="#FBBDA2" width="8.441" height="0.375"/>
				<g opacity="0.25" clip-path="url(#SVGID_6_)">
					<g>
						<defs>
							<rect id="SVGID_108_" x="45.568" y="82.435" width="5.841" height="6.509"/>
						</defs>
						<clipPath id="SVGID_109_">
							<use xlink:href="#SVGID_108_"  overflow="visible"/>
						</clipPath>
						<polygon clip-path="url(#SVGID_109_)" fill="#FFFFFF" points="51.41,82.435 51.355,88.907 45.568,88.943 46.104,86.081 						
							"/>
					</g>
				</g>
				<g clip-path="url(#SVGID_6_)">
					<g>
						<defs>
							<rect id="SVGID_110_" x="80.657" y="100.181" width="10.456" height="19.524"/>
						</defs>
						<clipPath id="SVGID_111_">
							<use xlink:href="#SVGID_110_"  overflow="visible"/>
						</clipPath>
						<polygon clip-path="url(#SVGID_111_)" fill="#B04460" points="90.663,100.181 91.113,100.688 90.942,119.705 81.553,119.683 
							80.657,119.259 						"/>
					</g>
				</g>
				<polygon clip-path="url(#SVGID_6_)" fill="#FBBDA2" points="90.428,119.198 80.657,119.258 79.835,100.086 90.663,100.181 				
					"/>
				<polygon clip-path="url(#SVGID_6_)" fill="#240E1B" points="89.471,100.742 89.368,111.398 89.303,118.36 81.691,118.407 
					81.038,100.639 				"/>
				<rect x="85.02" y="100.294" clip-path="url(#SVGID_6_)" fill="#FBBDA2" width="0.479" height="18.694"/>
				
					<rect x="80.533" y="104.363" transform="matrix(1 -0.0061 0.0061 1 -0.6378 0.5237)" clip-path="url(#SVGID_6_)" fill="#FBBDA2" width="9.582" height="0.402"/>
				<g opacity="0.25" clip-path="url(#SVGID_6_)">
					<g>
						<defs>
							<rect id="SVGID_112_" x="82.734" y="111.398" width="6.634" height="7.002"/>
						</defs>
						<clipPath id="SVGID_113_">
							<use xlink:href="#SVGID_112_"  overflow="visible"/>
						</clipPath>
						<polygon clip-path="url(#SVGID_113_)" fill="#FFFFFF" points="89.368,111.398 89.303,118.36 82.734,118.4 83.344,115.322 
													"/>
					</g>
				</g>
				<g clip-path="url(#SVGID_6_)">
					<g>
						<defs>
							<rect id="SVGID_114_" x="58.837" y="72.004" width="9.206" height="18.154"/>
						</defs>
						<clipPath id="SVGID_115_">
							<use xlink:href="#SVGID_114_"  overflow="visible"/>
						</clipPath>
						<polygon clip-path="url(#SVGID_115_)" fill="#B04460" points="67.646,72.004 68.043,72.477 67.898,90.158 59.626,90.134 
							58.837,89.739 						"/>
					</g>
				</g>
				<polygon clip-path="url(#SVGID_6_)" fill="#FBBDA2" points="67.445,89.687 58.837,89.739 58.107,71.913 67.646,72.004 				"/>
				<polygon clip-path="url(#SVGID_6_)" fill="#240E1B" points="66.596,72.526 66.508,82.434 66.454,88.907 59.748,88.948 
					59.167,72.428 				"/>
				<rect x="62.678" y="72.108" clip-path="url(#SVGID_6_)" fill="#FBBDA2" width="0.422" height="17.381"/>
				
					<rect x="58.724" y="75.891" transform="matrix(1 -0.0061 0.0061 1 -0.4653 0.3874)" clip-path="url(#SVGID_6_)" fill="#FBBDA2" width="8.441" height="0.375"/>
				<g opacity="0.25" clip-path="url(#SVGID_6_)">
					<g>
						<defs>
							<rect id="SVGID_116_" x="60.667" y="82.435" width="5.842" height="6.509"/>
						</defs>
						<clipPath id="SVGID_117_">
							<use xlink:href="#SVGID_116_"  overflow="visible"/>
						</clipPath>
						<polygon clip-path="url(#SVGID_117_)" fill="#FFFFFF" points="66.508,82.435 66.454,88.907 60.667,88.943 61.203,86.081 
													"/>
					</g>
				</g>
				<polygon clip-path="url(#SVGID_6_)" fill="#F0CECE" points="195.255,142.479 195.255,143.444 157.423,143.444 157.099,142.566 
									"/>
				<polygon clip-path="url(#SVGID_6_)" fill="#F0CECE" points="23.857,142.719 23.25,143.636 -79.738,143.708 -80.084,143.708 
					-96.499,143.719 -96.499,142.254 -80.334,142.317 -79.447,142.32 				"/>
				<polygon clip-path="url(#SVGID_6_)" fill="#B09797" points="33.985,130.39 24.517,143.605 23.336,145.246 -96.5,144.972 
					-96.5,143.722 23.25,143.636 23.275,143.605 				"/>
				<path clip-path="url(#SVGID_6_)" fill="#B09797" d="M50.746,130.39c-0.055,0.401,7.566,15.549,7.566,15.549l48.482,0.069
					l5.622-15.606l-5.864,14.221l-48.101-0.034L50.746,130.39z"/>
				<polygon clip-path="url(#SVGID_6_)" fill="#B09797" points="195.255,143.445 195.204,144.83 157.215,144.761 144.056,130.493 
					157.423,143.445 				"/>
				<polygon clip-path="url(#SVGID_6_)" fill="#987D7C" points="82.158,143.334 81.884,144.662 81.867,144.74 81.607,146.052 
					81.521,144.74 81.516,144.662 81.271,143.331 				"/>
				<polygon clip-path="url(#SVGID_6_)" fill="#F9E1E0" points="82.158,143.334 81.867,144.74 81.607,146.052 81.745,144.702 				
					"/>
				<polygon clip-path="url(#SVGID_6_)" fill="#987D7C" points="23.336,145.246 -96.499,145.293 -96.499,144.836 				"/>
				<polygon clip-path="url(#SVGID_6_)" fill="#987D7C" points="58.313,145.938 106.786,146.008 81.583,146.308 58.336,145.938 				
					"/>
				<polygon clip-path="url(#SVGID_6_)" fill="#987D7C" points="195.255,144.761 195.255,145.31 157.215,144.761 				"/>
				<polygon clip-path="url(#SVGID_6_)" fill="#CAB42E" points="59.906,133.541 60.183,132.087 60.667,132.779 61.152,130.84 
					61.429,132.71 62.122,131.394 62.052,132.71 62.953,132.018 62.814,133.541 				"/>
				<polygon clip-path="url(#SVGID_6_)" fill="#AE9932" points="153.983,133.864 154.26,132.41 154.745,133.102 155.229,131.163 
					155.507,133.033 156.199,131.717 156.13,133.033 157.03,132.341 156.892,133.864 				"/>
				<polygon clip-path="url(#SVGID_6_)" fill="#CAB42E" points="57.62,133.299 57.135,132.536 58.313,133.229 58.104,130.251 
					59.144,133.091 59.56,131.982 59.767,133.645 				"/>
				<polygon clip-path="url(#SVGID_6_)" fill="#CAB42E" points="95.159,133.817 95.297,132.779 95.99,133.402 97.306,130.493 
					96.959,133.61 98.068,132.502 98.137,133.472 100.076,132.225 100.145,133.817 				"/>
				<polygon clip-path="url(#SVGID_6_)" fill="#CAB42E" points="11.678,133.634 11.816,132.595 12.509,133.218 13.825,130.309 
					13.479,133.426 14.586,132.317 14.656,133.287 16.595,132.04 16.665,133.634 				"/>
				<polygon clip-path="url(#SVGID_6_)" fill="#AE9932" points="-0.697,139.451 -0.558,138.412 0.134,139.035 1.45,136.127 
					1.104,139.243 2.212,138.135 2.282,139.105 4.221,137.857 4.29,139.451 				"/>
				<polygon clip-path="url(#SVGID_6_)" fill="#CAB42E" points="78.052,132.71 78.813,133.264 79.09,131.74 79.713,133.194 
					80.476,131.187 80.476,133.402 81.792,131.602 81.307,133.817 78.121,134.164 				"/>
				<polygon clip-path="url(#SVGID_6_)" fill="#AE9932" points="68.125,140.951 67.755,139.382 68.401,139.936 68.956,138.458 
					69.14,140.397 70.156,139.197 70.064,140.582 70.987,139.566 71.172,140.306 72.28,138.828 72.464,140.028 73.388,139.659 
					73.665,140.213 74.681,139.566 74.773,140.675 76.62,139.197 75.974,141.69 				"/>
				<polygon clip-path="url(#SVGID_6_)" fill="#B09797" points="115.036,141.021 114.136,143.652 115.521,140.813 				"/>
				<polygon clip-path="url(#SVGID_6_)" fill="#B09797" points="122.539,140.836 123.602,140.352 123.624,140.836 125.056,140.813 
					125.749,139.474 126.164,140.951 				"/>
				<polygon clip-path="url(#SVGID_6_)" fill="#B09797" points="131.843,134.303 132.813,136.149 132.489,134.268 				"/>
				<polygon clip-path="url(#SVGID_6_)" fill="#B09797" points="139.692,134.268 139.641,133.61 140.541,134.39 				"/>
				<polygon clip-path="url(#SVGID_6_)" fill="#B09797" points="106.552,144.622 105.247,143.373 106.24,144.622 				"/>
				<polygon clip-path="url(#SVGID_6_)" fill="#B09797" points="135.468,140.951 136.922,143.444 136.264,140.951 				"/>
				<polygon clip-path="url(#SVGID_6_)" fill="#B09797" points="158.277,142.591 157.423,143.444 157.169,143.237 				"/>
				<polygon clip-path="url(#SVGID_6_)" fill="#B09797" points="59.244,143.309 58.451,144.588 58.174,144.172 				"/>
				<polygon clip-path="url(#SVGID_6_)" fill="#B09797" points="22.626,142.735 23.319,143.722 22.748,143.757 				"/>
				<polygon clip-path="url(#SVGID_6_)" fill="#B09797" points="33.795,134.372 34.938,132.849 34.522,134.407 				"/>
				<path clip-path="url(#SVGID_6_)" fill="#B09797" d="M33.483,140.951l-0.277,1.074l0.52-0.797c0,0,0.034,0.658,0.034,0.555
					c0-0.104,1.178-0.797,1.178-0.797L33.483,140.951z"/>
				<polygon clip-path="url(#SVGID_6_)" fill="#B09797" points="44.288,134.338 44.599,135.618 44.876,134.233 				"/>
				<polygon clip-path="url(#SVGID_6_)" fill="#B09797" points="42.556,140.917 43.145,139.739 43.318,140.986 				"/>
				<polygon clip-path="url(#SVGID_6_)" fill="#B09797" points="36.323,140.951 37.639,138.735 37.015,140.986 				"/>
				<path clip-path="url(#SVGID_6_)" fill="#B09797" d="M49.563,138.874c0,0.178-0.434,0.323-0.969,0.323s-0.97-0.146-0.97-0.323
					c0-0.179,0.435-0.323,0.97-0.323S49.563,138.695,49.563,138.874"/>
				<path clip-path="url(#SVGID_6_)" fill="#B09797" d="M47.162,137.95c0,0.085-0.207,0.154-0.461,0.154
					c-0.255,0-0.462-0.069-0.462-0.154s0.207-0.153,0.462-0.153C46.955,137.797,47.162,137.865,47.162,137.95"/>
				<path clip-path="url(#SVGID_6_)" fill="#B09797" d="M36.45,132.147c0,0.085-0.207,0.154-0.462,0.154s-0.461-0.069-0.461-0.154
					s0.207-0.153,0.461-0.153S36.45,132.063,36.45,132.147"/>
				<path clip-path="url(#SVGID_6_)" fill="#B09797" d="M29.2,144.43c0,0.085-0.207,0.154-0.461,0.154
					c-0.255,0-0.461-0.069-0.461-0.154s0.206-0.153,0.461-0.153C28.994,144.276,29.2,144.345,29.2,144.43"/>
				<path clip-path="url(#SVGID_6_)" fill="#B09797" d="M26.43,147.186c0,0.169-0.414,0.308-0.924,0.308
					c-0.51,0-0.923-0.139-0.923-0.308c0-0.171,0.414-0.309,0.923-0.309C26.017,146.877,26.43,147.015,26.43,147.186"/>
				<path clip-path="url(#SVGID_6_)" fill="#B09797" d="M13.363,146.216c0,0.17-0.414,0.308-0.924,0.308
					c-0.51,0-0.923-0.138-0.923-0.308c0-0.171,0.414-0.309,0.923-0.309C12.95,145.907,13.363,146.045,13.363,146.216"/>
				<path clip-path="url(#SVGID_6_)" fill="#B09797" d="M53.256,143.445c0,0.127-0.31,0.23-0.692,0.23s-0.692-0.104-0.692-0.23
					c0-0.128,0.31-0.231,0.692-0.231S53.256,143.317,53.256,143.445"/>
				<path clip-path="url(#SVGID_6_)" fill="#B09797" d="M72.026,147.831c0,0.128-0.31,0.231-0.693,0.231
					c-0.382,0-0.692-0.104-0.692-0.231c0-0.127,0.31-0.23,0.692-0.23C71.716,147.601,72.026,147.704,72.026,147.831"/>
				<path clip-path="url(#SVGID_6_)" fill="#B09797" d="M69.463,148.57c0,0.114-0.279,0.208-0.624,0.208s-0.623-0.094-0.623-0.208
					s0.279-0.208,0.623-0.208S69.463,148.456,69.463,148.57"/>
				<path clip-path="url(#SVGID_6_)" fill="#B09797" d="M102.916,146.978c0,0.204-0.496,0.369-1.108,0.369
					c-0.612,0-1.108-0.165-1.108-0.369s0.496-0.369,1.108-0.369C102.419,146.608,102.916,146.773,102.916,146.978"/>
				<path clip-path="url(#SVGID_6_)" fill="#B09797" d="M151.882,142.06c0,0.204-0.496,0.37-1.108,0.37
					c-0.612,0-1.108-0.166-1.108-0.37c0-0.203,0.496-0.369,1.108-0.369C151.386,141.69,151.882,141.856,151.882,142.06"/>
				<path clip-path="url(#SVGID_6_)" fill="#B09797" d="M149.389,143.168c0,0.114-0.279,0.208-0.623,0.208
					c-0.345,0-0.624-0.094-0.624-0.208s0.279-0.208,0.624-0.208C149.109,142.96,149.389,143.054,149.389,143.168"/>
				<path clip-path="url(#SVGID_6_)" fill="#B09797" d="M128.888,146.908c0,0.114-0.279,0.207-0.624,0.207
					c-0.344,0-0.624-0.093-0.624-0.207c0-0.115,0.279-0.208,0.624-0.208C128.609,146.7,128.888,146.793,128.888,146.908"/>
				<path clip-path="url(#SVGID_6_)" fill="#B09797" d="M130.135,147.601c0,0.114-0.279,0.208-0.624,0.208s-0.623-0.094-0.623-0.208
					s0.279-0.208,0.623-0.208S130.135,147.486,130.135,147.601"/>
				<path clip-path="url(#SVGID_6_)" fill="#B09797" d="M141.285,132.779c0,0.114-0.279,0.207-0.623,0.207
					c-0.345,0-0.624-0.093-0.624-0.207c0-0.115,0.279-0.208,0.624-0.208C141.006,132.571,141.285,132.664,141.285,132.779"/>
				<path clip-path="url(#SVGID_6_)" fill="#B09797" d="M135.814,135.826c0,0.114-0.279,0.208-0.624,0.208s-0.623-0.094-0.623-0.208
					s0.279-0.208,0.623-0.208S135.814,135.712,135.814,135.826"/>
				<path clip-path="url(#SVGID_6_)" fill="#B09797" d="M113.512,135.688c0,0.153-0.372,0.277-0.831,0.277
					c-0.459,0-0.831-0.124-0.831-0.277c0-0.152,0.372-0.276,0.831-0.276C113.141,135.411,113.512,135.535,113.512,135.688"/>
				<path clip-path="url(#SVGID_6_)" fill="#B09797" d="M114.621,136.242c0,0.051-0.124,0.092-0.277,0.092
					c-0.153,0-0.277-0.041-0.277-0.092s0.124-0.093,0.277-0.093C114.497,136.149,114.621,136.191,114.621,136.242"/>
				<path clip-path="url(#SVGID_6_)" fill="#B09797" d="M117.599,131.855c0,0.051-0.124,0.093-0.277,0.093s-0.277-0.042-0.277-0.093
					s0.125-0.092,0.277-0.092S117.599,131.805,117.599,131.855"/>
				<path clip-path="url(#SVGID_6_)" fill="#B09797" d="M51.179,144.507c0,0.077-0.186,0.139-0.416,0.139s-0.416-0.062-0.416-0.139
					c0-0.076,0.186-0.139,0.416-0.139S51.179,144.431,51.179,144.507"/>
				<polygon clip-path="url(#SVGID_6_)" fill="#B09797" points="-14.531,135.463 -10.237,129.229 -4.315,127.879 0.152,129.507 
					5.139,135.048 -2.792,136.328 				"/>
				<polygon clip-path="url(#SVGID_6_)" fill="#C0A8A7" points="-10.237,129.229 -3.38,130.476 0.152,129.506 -4.315,127.879 				
					"/>
				<polygon clip-path="url(#SVGID_6_)" fill="#9B8483" points="5.138,135.048 -2.791,136.328 -3.381,130.477 0.151,129.507 				"/>
				<polygon clip-path="url(#SVGID_6_)" fill="#8E7676" points="-2.792,136.328 -3.372,130.484 0.152,129.506 -2.896,130.719 				
					"/>
				<polygon clip-path="url(#SVGID_6_)" fill="#8E7676" points="-2.791,136.328 2.165,133.633 0.151,129.508 5.138,135.048 				"/>
			</g>
		</g>
	</g>
</g>
</svg>
