<?xml version="1.0" encoding="UTF-8" standalone="no"?>
<svg
   xmlns:dc="http://purl.org/dc/elements/1.1/"
   xmlns:cc="http://creativecommons.org/ns#"
   xmlns:rdf="http://www.w3.org/1999/02/22-rdf-syntax-ns#"
   xmlns:svg="http://www.w3.org/2000/svg"
   xmlns="http://www.w3.org/2000/svg"
   viewBox="0 0 215.67999 199.28"
   height="199.28"
   width="215.67999"
   xml:space="preserve"
   id="svg2"
   version="1.1"><metadata
     id="metadata8"><rdf:RDF><cc:Work
         rdf:about=""><dc:format>image/svg+xml</dc:format><dc:type
           rdf:resource="http://purl.org/dc/dcmitype/StillImage" /></cc:Work></rdf:RDF></metadata><defs
     id="defs6"><clipPath
       id="clipPath22"
       clipPathUnits="userSpaceOnUse"><path
         style="clip-rule:evenodd"
         id="path20"
         d="M 48.5664,1494.57 H 1569.08 c 26.72,0 48.57,-21.85 48.57,-48.57 V 48.5703 C 1617.65,21.8594 1595.8,0 1569.08,0 H 48.5664 C 21.8516,0 0,21.8594 0,48.5703 V 1446 c 0,26.72 21.8516,48.57 48.5664,48.57" /></clipPath></defs><g
     transform="matrix(1.3333333,0,0,-1.3333333,0,199.28)"
     id="g10"><g
       transform="scale(0.1)"
       id="g12"><path
         id="path14"
         style="fill:#f1f4d0;fill-opacity:1;fill-rule:evenodd;stroke:none"
         d="M 48.5664,1494.57 H 1569.08 c 26.72,0 48.57,-21.85 48.57,-48.57 V 48.5703 C 1617.65,21.8594 1595.8,0 1569.08,0 H 48.5664 C 21.8516,0 0,21.8594 0,48.5703 V 1446 c 0,26.72 21.8516,48.57 48.5664,48.57" /><g
         id="g16"><g
           clip-path="url(#clipPath22)"
           id="g18"><path
             id="path24"
             style="fill:#668b2b;fill-opacity:1;fill-rule:nonzero;stroke:none"
             d="m 2035.9,381.5 9.14,-29.199 -1121.798,-798.34 -9.129,29.199 L 2035.9,381.5" /><path
             id="path26"
             style="fill:#455922;fill-opacity:1;fill-rule:nonzero;stroke:none"
             d="m 914.113,-416.84 9.129,-29.199 -1182.047,577.269 -9.133,29.2 1182.051,-577.27" /><path
             id="path28"
             style="fill:#8cbd26;fill-opacity:1;fill-rule:nonzero;stroke:none"
             d="M 2035.9,381.5 914.113,-416.84 -267.938,160.43 853.855,958.77 2035.9,381.5" /><path
             id="path30"
             style="fill:#dfddbe;fill-opacity:1;fill-rule:nonzero;stroke:none"
             d="M 876.566,29.5391 504.305,211.332 809.078,428.23 1181.33,246.441 Z M 1732.8,529.801 1641.89,574.191 1243.71,290.832 871.453,472.629 1269.63,755.988 1178.73,800.387 780.559,517.016 455.727,675.652 393.344,631.262 718.176,472.629 56.9414,2.03906 147.844,-42.3516 441.926,166.941 814.188,-14.8594 520.098,-224.148 611,-268.539 905.09,-59.25 l 303.36,-148.148 62.39,44.386 L 967.465,-14.8516 1272.24,202.039 1575.39,54 l 62.38,44.3906 -303.15,148.0504 398.18,283.36" /><path
             id="path32"
             style="fill:#3c3c3d;fill-opacity:1;fill-rule:nonzero;stroke:none"
             d="M 880.145,18.3906 485.066,211.332 805.496,439.379 1200.57,246.441 Z M 1721.33,535.406 1653.3,568.621 1247.26,279.648 852.18,472.602 1258.22,761.566 1190.19,794.785 784.148,505.824 447.855,670.051 401.172,636.836 737.473,472.602 68.4023,-3.55078 136.43,-36.7813 438.383,178.109 833.461,-14.8281 531.512,-229.719 599.539,-262.941 901.492,-48.0508 1216.32,-201.801 1263,-168.578 948.176,-14.8281 1268.61,213.211 1583.22,59.5586 1629.9,92.7891 1315.28,246.441 1721.33,535.406" /><path
             id="path34"
             style="fill:#dfdfdb;fill-opacity:1;fill-rule:nonzero;stroke:none"
             d="m 1489.84,131.441 1.74,1.239 12.56,-6.129 -1.75,-1.242 -12.55,6.132" /><path
             id="path36"
             style="fill:#dfdfdb;fill-opacity:1;fill-rule:nonzero;stroke:none"
             d="m 1469.68,141.289 1.74,1.242 12.6,-6.152 -1.74,-1.238 -12.6,6.148" /><path
             id="path38"
             style="fill:#dfdfdb;fill-opacity:1;fill-rule:nonzero;stroke:none"
             d="m 1449.56,151.109 1.74,1.25 12.6,-6.16 -1.74,-1.238 -12.6,6.148" /><path
             id="path40"
             style="fill:#dfdfdb;fill-opacity:1;fill-rule:nonzero;stroke:none"
             d="m 1429.44,160.941 1.74,1.239 12.61,-6.149 -1.75,-1.25 -12.6,6.16" /><path
             id="path42"
             style="fill:#dfdfdb;fill-opacity:1;fill-rule:nonzero;stroke:none"
             d="m 1409.33,170.762 1.74,1.25 12.6,-6.16 -1.74,-1.243 -12.6,6.153" /><path
             id="path44"
             style="fill:#dfdfdb;fill-opacity:1;fill-rule:nonzero;stroke:none"
             d="m 1389.21,180.59 1.75,1.242 12.59,-6.152 -1.74,-1.25 -12.6,6.16" /><path
             id="path46"
             style="fill:#dfdfdb;fill-opacity:1;fill-rule:nonzero;stroke:none"
             d="m 1369.09,190.41 1.75,1.238 12.6,-6.148 -1.75,-1.238 -12.6,6.148" /><path
             id="path48"
             style="fill:#e43a4b;fill-opacity:1;fill-rule:nonzero;stroke:none"
             d="m 882.203,710.637 c 37.223,21.496 74.5,26.668 103,10.426 l -58.89,34.218 c -28.5,16.246 -65.778,11.074 -103,-10.426 C 786.09,723.367 748.902,685.559 720.609,636.516 675.809,558.918 665.469,473.59 695.098,425.859 L 824.82,216.898 883.711,182.672 753.988,391.629 c -29.629,47.742 -19.289,133.07 25.512,210.668 28.293,49.035 65.473,86.844 102.703,108.34" /><path
             id="path50"
             style="fill:#f1475c;fill-opacity:1;fill-rule:nonzero;stroke:none"
             d="m 882.203,710.637 c 37.223,21.496 74.5,26.668 103,10.426 45.097,-25.696 55.857,-98.844 26.597,-180.586 L 883.711,182.672 753.996,391.629 c -29.637,47.742 -19.297,133.07 25.504,210.668 28.293,49.035 65.48,86.844 102.703,108.34" /><path
             id="path52"
             style="fill:#fafaf8;fill-opacity:1;fill-rule:nonzero;stroke:none"
             d="m 987.414,602.82 c 0,-62.218 -43.684,-137.879 -97.566,-169 -53.891,-31.109 -97.575,-5.879 -97.575,56.34 0,62.219 43.684,137.883 97.575,168.992 53.882,31.114 97.566,5.895 97.566,-56.332" /><path
             id="path54"
             style="fill:#e4ddd1;fill-opacity:1;fill-rule:nonzero;stroke:none"
             d="m 933.422,672.477 c -13.113,0 -27.918,-4.282 -43.574,-13.325 -53.887,-31.109 -97.575,-106.773 -97.575,-168.992 0,-44.148 21.977,-69.672 53.997,-69.672 13.113,0 27.914,4.301 43.578,13.332 56.027,42.219 98.211,110.121 97.57,169 0,44.137 -21.984,69.657 -53.996,69.657 z m 0.008,-13.516 v 0 c 25.336,0 40.465,-20.988 40.465,-56.141 0,-57.82 -40.735,-128.379 -90.809,-157.3 -13.051,-7.52 -25.777,-11.508 -36.816,-11.508 -25.352,0 -40.485,20.988 -40.485,56.148 0,57.813 40.746,128.375 90.82,157.289 13.04,7.531 25.774,11.512 36.825,11.512" /></g></g></g></g></svg>